<svg width="485" height="76" viewBox="0 0 485 76" fill="none" xmlns="http://www.w3.org/2000/svg">
<path d="M14.6445 6.50391C14.8815 6.10286 15.1823 5.89323 15.5469 5.875C15.9297 5.85677 16.2396 5.98438 16.4766 6.25781C16.7318 6.53125 16.7865 6.89583 16.6406 7.35156C15.0729 11.3255 13.6146 15.3268 12.2656 19.3555C9.49479 27.4128 7.02474 35.5703 4.85547 43.8281C4.05339 46.9089 3.46094 50.026 3.07812 53.1797C3.0599 53.3073 3.05078 53.4349 3.05078 53.5625C2.97786 54.0911 2.95964 54.6107 2.99609 55.1211C3.34245 55.3763 3.4974 55.7135 3.46094 56.1328C3.44271 56.5521 3.1875 56.862 2.69531 57.0625C2.34896 57.1536 2.02083 57.1172 1.71094 56.9531C1.41927 56.7891 1.21875 56.5339 1.10938 56.1875C0.963542 55.4766 0.981771 54.7747 1.16406 54.082C1.18229 53.9544 1.20052 53.8359 1.21875 53.7266C1.49219 52.4141 1.80208 51.1198 2.14844 49.8438C2.14844 49.8255 2.15755 49.7982 2.17578 49.7617C5.42057 37.8216 8.82943 25.8997 12.4023 13.9961C11.7279 14.8893 11.0625 15.7826 10.4062 16.6758C9.0026 18.4805 7.66276 20.3216 6.38672 22.1992C5.71224 23.1654 5.11068 24.1497 4.58203 25.1523C4.05339 26.1003 3.69792 27.0755 3.51562 28.0781C3.36979 28.9167 3.6888 29.4909 4.47266 29.8008C4.74609 29.9284 4.9375 30.1289 5.04688 30.4023C5.15625 30.6576 5.15625 30.931 5.04688 31.2227C4.91927 31.4961 4.71875 31.6966 4.44531 31.8242C4.1901 31.9336 3.91667 31.9336 3.625 31.8242C2.49479 31.3138 1.79297 30.6211 1.51953 29.7461C1.24609 28.8711 1.23698 27.9414 1.49219 26.957C1.76562 25.9544 2.14844 25.0065 2.64062 24.1133C3.84375 21.9987 5.17448 19.9753 6.63281 18.043C7.39844 16.9857 8.17318 15.9375 8.95703 14.8984C11.0898 12.237 12.9857 9.4388 14.6445 6.50391ZM47.457 19.6016C47.4753 19.6745 47.4935 19.7474 47.5117 19.8203C47.5117 19.8932 47.5026 19.9753 47.4844 20.0664C47.4115 20.3581 47.2565 20.5495 47.0195 20.6406C46.7826 20.7318 46.5547 20.7227 46.3359 20.6133C46.1172 20.4857 45.9896 20.2669 45.9531 19.957C45.4609 19.7018 44.9049 19.5286 44.2852 19.4375C44.2852 19.4375 44.276 19.4375 44.2578 19.4375C43.8203 19.3464 43.3646 19.2826 42.8906 19.2461C40.5755 19.0091 38.2331 18.8997 35.8633 18.918C31.8529 18.918 27.8424 19.0182 23.832 19.2188C23.1029 20.4766 22.3372 21.7161 21.5352 22.9375C20.9336 23.8672 20.2773 24.7786 19.5664 25.6719C19.5117 25.7448 19.4388 25.8086 19.3477 25.8633C18.582 28.306 17.8802 30.7669 17.2422 33.2461C17.1328 33.6654 16.9688 34.2214 16.75 34.9141C16.3125 36.3724 15.8112 38.1862 15.2461 40.3555C14.681 42.5247 14.2526 44.7669 13.9609 47.082C13.6693 49.4154 13.6966 51.5299 14.043 53.4258C14.3711 55.3398 15.2096 56.7435 16.5586 57.6367C16.7956 57.7643 17.0508 57.8099 17.3242 57.7734C17.5612 57.7734 17.7526 57.8555 17.8984 58.0195C18.0625 58.1836 18.1536 58.3841 18.1719 58.6211C18.1719 58.8581 18.0898 59.0495 17.9258 59.1953C17.7799 59.3594 17.5885 59.4505 17.3516 59.4688C17.1875 59.4688 17.0326 59.4323 16.8867 59.3594C16.1393 58.9948 15.5378 58.5208 15.082 57.9375C14.1706 56.5703 13.6328 55.0117 13.4688 53.2617C13.2865 51.5117 13.2409 49.8346 13.332 48.2305C13.5872 44.3659 14.0977 40.5286 14.8633 36.7188C15.6289 32.8906 16.5768 29.1172 17.707 25.3984C17.5612 25.0156 17.6159 24.651 17.8711 24.3047C17.944 24.1953 18.026 24.0859 18.1172 23.9766C18.1354 23.9583 18.1536 23.931 18.1719 23.8945C18.6641 22.3997 19.1836 20.9049 19.7305 19.4102C18.4362 19.4648 17.0508 19.5286 15.5742 19.6016C12.694 19.7292 10.0052 19.875 7.50781 20.0391C6.9974 20.0573 6.49609 20.0938 6.00391 20.1484C4.81901 20.2578 3.625 20.2852 2.42188 20.2305C2.40365 20.2305 2.38542 20.2305 2.36719 20.2305C2.23958 20.2122 2.09375 20.1758 1.92969 20.1211C1.875 20.1029 1.82031 20.0755 1.76562 20.0391C1.72917 20.0208 1.69271 20.0026 1.65625 19.9844C1.58333 19.9479 1.52865 19.8932 1.49219 19.8203C1.40104 19.7292 1.33724 19.6198 1.30078 19.4922C1.26432 19.3099 1.27344 19.1367 1.32812 18.9727C1.47396 18.6445 1.70182 18.4805 2.01172 18.4805C2.32161 18.4805 2.55859 18.6354 2.72266 18.9453C4.10807 19.2552 5.52083 19.4102 6.96094 19.4102C7.14323 19.4102 7.32552 19.4102 7.50781 19.4102C10.4427 19.4102 13.5599 19.2917 16.8594 19.0547C17.9349 19 18.9557 18.9453 19.9219 18.8906C20.4323 17.4688 21.2435 15.4727 22.3555 12.9023C23.4857 10.332 24.7253 7.88932 26.0742 5.57422C27.4414 3.24089 28.7174 1.74609 29.9023 1.08984C30.2305 0.94401 30.5768 0.907552 30.9414 0.980469C31.306 1.05339 31.5794 1.26302 31.7617 1.60938C31.8164 1.73698 31.8438 1.84635 31.8438 1.9375C31.862 2.0651 31.8711 2.16536 31.8711 2.23828C31.7982 2.7487 31.6706 3.23177 31.4883 3.6875C31.4701 3.76042 31.4427 3.84245 31.4062 3.93359C31.224 4.46224 31.0234 4.98177 30.8047 5.49219C28.8359 9.99479 26.6302 14.3698 24.1875 18.6172C24.7891 18.5807 25.3997 18.5443 26.0195 18.5078C30.3398 18.2344 34.569 18.043 38.707 17.9336C38.944 17.9336 39.2083 17.9336 39.5 17.9336C40.6849 17.8971 41.9974 17.9245 43.4375 18.0156C44.8958 18.0885 46.0169 18.3255 46.8008 18.7266C46.9648 18.8177 47.1289 18.9727 47.293 19.1914C47.3294 19.2461 47.3659 19.3099 47.4023 19.3828C47.4206 19.4557 47.4388 19.5286 47.457 19.6016ZM2.50391 18.8633L2.55859 18.8906C2.55859 18.8906 2.56771 18.8906 2.58594 18.8906C2.56771 18.8724 2.54948 18.8542 2.53125 18.8359C2.51302 18.8359 2.50391 18.8359 2.50391 18.8359C2.48568 18.8359 2.47656 18.8359 2.47656 18.8359C2.49479 18.8542 2.50391 18.8633 2.50391 18.8633ZM26.8672 8.25391C25.3906 10.9518 24.0508 13.7227 22.8477 16.5664C24.8529 13.0482 26.694 9.4388 28.3711 5.73828C27.8424 6.55859 27.3411 7.39714 26.8672 8.25391ZM46.0078 20.0117C46.0078 20.0117 46.0078 20.0026 46.0078 19.9844C46.0078 20.0026 46.0078 20.0208 46.0078 20.0391C46.026 20.0391 46.026 20.0299 46.0078 20.0117ZM29.1914 19.957C29.5742 21.0143 29.6016 22.0716 29.2734 23.1289C28.9453 24.168 28.3346 25.0156 27.4414 25.6719C26.8945 26.0729 26.3021 26.319 25.6641 26.4102C25.5911 26.4102 25.5273 26.3919 25.4727 26.3555C25.4362 26.319 25.4089 26.2643 25.3906 26.1914C25.3906 26.1367 25.3997 26.0911 25.418 26.0547C25.4544 26 25.5 25.9635 25.5547 25.9453C26.3021 25.6354 26.8672 25.125 27.25 24.4141C27.651 23.7031 27.806 22.9557 27.7148 22.1719C27.6419 21.6979 27.4779 21.2969 27.2227 20.9688C27.0404 20.7135 26.9674 20.4401 27.0039 20.1484C27.0586 19.8568 27.2044 19.6107 27.4414 19.4102C27.7695 19.1914 28.1068 19.1367 28.4531 19.2461C28.7995 19.3555 29.0456 19.5924 29.1914 19.957ZM55.6328 36.4453C55.6693 36.6458 55.6328 36.8372 55.5234 37.0195C55.4141 37.1836 55.25 37.293 55.0312 37.3477C55.013 37.3477 54.9948 37.3477 54.9766 37.3477C54.8125 37.3659 54.6484 37.3659 54.4844 37.3477C54.3021 37.3477 54.1198 37.3568 53.9375 37.375C53.026 37.4115 52.1146 37.5117 51.2031 37.6758C48.7786 38.1497 46.4089 38.8424 44.0938 39.7539C42.2344 40.4466 40.4206 41.2578 38.6523 42.1875C38.5977 42.224 38.5612 42.2695 38.543 42.3242C38.5247 42.3789 38.5247 42.4336 38.543 42.4883C38.8529 43.4544 38.707 44.3021 38.1055 45.0312C37.5039 45.7604 36.7656 46.2982 35.8906 46.6445C35.3802 46.8633 34.8424 46.9727 34.2773 46.9727C34.2591 46.9727 34.25 46.9727 34.25 46.9727C34.1406 46.9727 34.0039 46.9362 33.8398 46.8633C33.8216 46.8633 33.8125 46.8542 33.8125 46.8359C32.9193 46.1797 32.819 45.4505 33.5117 44.6484C34.2044 43.8464 35.1979 43.099 36.4922 42.4062C36.5469 42.3516 36.5833 42.2969 36.6016 42.2422C36.6198 42.1693 36.6016 42.0964 36.5469 42.0234C36.0365 41.349 35.5169 40.6745 34.9883 40C34.4049 39.2891 33.8307 38.5508 33.2656 37.7852C33.2656 37.7852 33.2565 37.776 33.2383 37.7578C32.819 37.2109 32.4362 36.6367 32.0898 36.0352C31.7435 35.4154 31.5247 34.75 31.4336 34.0391C31.3424 33.1823 31.5247 32.3984 31.9805 31.6875C32.4362 30.9766 33.0104 30.4206 33.7031 30.0195C34.5417 29.5091 35.5078 29.1719 36.6016 29.0078C37.6953 28.8255 38.6979 28.9349 39.6094 29.3359C40.5391 29.8281 40.9128 30.4479 40.7305 31.1953C40.5482 31.9245 40.056 32.681 39.2539 33.4648C38.4701 34.2487 37.6315 34.9505 36.7383 35.5703C35.8451 36.1719 35.1615 36.582 34.6875 36.8008C35.1432 37.4753 35.6263 38.1589 36.1367 38.8516C36.7383 39.6901 37.3307 40.5378 37.9141 41.3945C37.9505 41.4492 37.9961 41.4857 38.0508 41.5039C38.1055 41.5221 38.1602 41.513 38.2148 41.4766C39.0352 41.0938 39.6732 40.793 40.1289 40.5742C40.2201 40.5378 40.3021 40.5104 40.375 40.4922C43.8203 38.9974 47.3568 37.7396 50.9844 36.7188C52.1875 36.3724 53.4271 36.0716 54.7031 35.8164C54.9219 35.7799 55.1133 35.8255 55.2773 35.9531C55.4596 36.0625 55.5781 36.2266 55.6328 36.4453ZM39.9102 29.8281C39.8919 29.8099 39.8737 29.7917 39.8555 29.7734C39.3633 29.3906 38.5339 29.3633 37.3672 29.6914C36.2188 30.0195 35.2161 30.6484 34.3594 31.5781C33.5208 32.5078 33.3112 33.6745 33.7305 35.0781C33.7669 35.151 33.8398 35.2057 33.9492 35.2422C34.0586 35.2786 34.1862 35.2604 34.332 35.1875C34.9154 34.8594 35.6901 34.3581 36.6562 33.6836C37.6224 33.0091 38.4518 32.3164 39.1445 31.6055C39.8555 30.8763 40.1107 30.2839 39.9102 29.8281ZM33.6758 46.2344C33.9128 46.4531 34.3229 46.4258 34.9062 46.1523C35.4896 45.8607 36.0273 45.4505 36.5195 44.9219C37.0299 44.375 37.2943 43.8555 37.3125 43.3633C37.3125 43.2539 37.2669 43.181 37.1758 43.1445C37.1029 43.1081 37.0208 43.1081 36.9297 43.1445C36.5104 43.3815 36.0182 43.6914 35.4531 44.0742C34.888 44.457 34.4141 44.849 34.0312 45.25C33.6484 45.6328 33.5299 45.9609 33.6758 46.2344ZM107.312 33.3281C107.385 33.4375 107.431 33.5651 107.449 33.7109C107.467 33.8385 107.458 33.957 107.422 34.0664C107.404 34.1393 107.376 34.2031 107.34 34.2578C107.303 34.2943 107.267 34.3398 107.23 34.3945C107.176 34.431 107.13 34.4674 107.094 34.5039L107.039 34.5312C107.003 34.5677 106.975 34.5951 106.957 34.6133C106.829 34.668 106.72 34.7135 106.629 34.75C106.428 34.8411 106.237 34.8503 106.055 34.7773C105.872 34.6862 105.736 34.5495 105.645 34.3672C105.608 34.2578 105.59 34.1484 105.59 34.0391C105.553 34.0391 105.517 34.0299 105.48 34.0117C104.934 33.9206 104.378 33.8385 103.812 33.7656C102.664 33.6562 101.516 33.5924 100.367 33.5742C99.2917 33.5378 98.2161 33.5378 97.1406 33.5742C96.7214 35.4518 96.3932 37.3385 96.1562 39.2344C96.0286 40.2188 95.9648 41.194 95.9648 42.1602C95.9284 43.1081 96.0378 44.0195 96.293 44.8945C96.4023 45.1862 96.5482 45.4232 96.7305 45.6055C96.931 45.7695 97.1953 45.8151 97.5234 45.7422C98.0156 45.6875 98.3711 45.8151 98.5898 46.125C98.8268 46.4167 98.8997 46.7448 98.8086 47.1094C98.7174 47.4922 98.4349 47.7565 97.9609 47.9023C96.1562 47.9753 95.0352 47.1276 94.5977 45.3594C94.3789 44.0833 94.388 42.6615 94.625 41.0938C94.8802 39.526 95.1719 38.0586 95.5 36.6914C95.5547 36.4909 95.6003 36.2904 95.6367 36.0898C95.8372 35.2513 96.0469 34.4219 96.2656 33.6016C95.026 33.638 93.7956 33.7201 92.5742 33.8477C90.5508 34.0299 88.5547 34.3398 86.5859 34.7773C85.4557 35.0143 84.3529 35.3242 83.2773 35.707C82.1836 36.0716 81.1719 36.5456 80.2422 37.1289C79.9505 37.2747 79.7044 37.2839 79.5039 37.1562C79.3216 37.0104 79.2214 36.819 79.2031 36.582C79.1849 36.3451 79.3125 36.1445 79.5859 35.9805C81.7917 35.0326 84.0703 34.3763 86.4219 34.0117C88.7188 33.5924 91.0339 33.2826 93.3672 33.082C94.4062 32.9909 95.4453 32.9089 96.4844 32.8359C96.8672 31.3776 97.2591 29.9193 97.6602 28.4609C98.8815 24.2318 99.9297 19.957 100.805 15.6367C100.823 15.5273 100.85 15.3997 100.887 15.2539C101.014 14.543 101.151 13.6406 101.297 12.5469C101.461 11.4531 101.516 10.4323 101.461 9.48438C101.406 8.53646 101.151 7.91667 100.695 7.625C100.622 7.60677 100.522 7.59766 100.395 7.59766C100.285 7.57943 100.185 7.57943 100.094 7.59766L99.9297 7.625C99.875 7.64323 99.8112 7.66146 99.7383 7.67969C99.7018 7.69792 99.6654 7.71615 99.6289 7.73438C97.8789 8.55469 95.8919 10.3138 93.668 13.0117C91.4622 15.7096 89.2474 18.8177 87.0234 22.3359C84.7995 25.8542 82.7852 29.2448 80.9805 32.5078C79.1758 35.7708 77.8086 38.3685 76.8789 40.3008C75.056 43.8555 73.4609 47.4922 72.0938 51.2109C71.8932 51.6667 71.6016 51.9128 71.2188 51.9492C70.8359 51.9857 70.5078 51.8672 70.2344 51.5938C69.9792 51.3203 69.9154 50.9466 70.043 50.4727C71.5195 46.6992 73.2057 43.026 75.1016 39.4531C76.9974 35.8802 78.9844 32.3529 81.0625 28.8711C84.1432 23.6576 87.543 18.6536 91.2617 13.8594C91.3346 13.7865 91.3984 13.7135 91.4531 13.6406C92.474 12.3464 93.6589 11.0065 95.0078 9.62109C96.375 8.21745 97.7969 7.21484 99.2734 6.61328C99.3099 6.61328 99.3464 6.60417 99.3828 6.58594C99.474 6.54948 99.5742 6.52214 99.6836 6.50391C100.85 6.33984 101.625 6.63151 102.008 7.37891C102.391 8.1263 102.555 9.02865 102.5 10.0859C102.464 11.1432 102.372 12.0547 102.227 12.8203C101.698 15.7005 101.023 18.5443 100.203 21.3516C100.057 21.9531 99.9023 22.5456 99.7383 23.1289C99.5924 23.6576 99.4466 24.1862 99.3008 24.7148C98.5898 27.3945 97.9245 30.0833 97.3047 32.7812C99.4922 32.6536 101.68 32.6081 103.867 32.6445C103.995 32.6445 104.122 32.6445 104.25 32.6445C105.052 32.6445 105.854 32.7357 106.656 32.918C106.747 32.9362 106.857 32.9727 106.984 33.0273C107.076 33.082 107.158 33.1458 107.23 33.2188C107.249 33.237 107.267 33.2552 107.285 33.2734C107.303 33.2917 107.312 33.3099 107.312 33.3281ZM142.477 1.36328C142.969 1.81901 143.151 2.49349 143.023 3.38672C142.896 4.26172 142.723 5.05469 142.504 5.76562C142.467 5.91146 142.431 6.03906 142.395 6.14844C141.483 8.95573 140.462 11.7174 139.332 14.4336C139.04 15.1628 138.749 15.901 138.457 16.6484C136.598 21.1875 134.893 25.7904 133.344 30.457C133.271 30.6393 133.207 30.8398 133.152 31.0586C132.605 32.7174 131.931 34.8776 131.129 37.5391C130.327 40.2005 129.607 42.9531 128.969 45.7969C128.331 48.6224 127.975 51.138 127.902 53.3438C127.848 55.5495 128.267 57.0352 129.16 57.8008C129.361 57.9648 129.552 58.0469 129.734 58.0469C130.154 58.0651 130.436 58.2109 130.582 58.4844C130.746 58.776 130.764 59.0677 130.637 59.3594C130.527 59.6693 130.263 59.8516 129.844 59.9062C129.661 59.9245 129.497 59.888 129.352 59.7969C129.206 59.7057 129.069 59.5964 128.941 59.4688C128.613 59.1406 128.367 58.8125 128.203 58.4844C127.474 56.625 127.182 54.401 127.328 51.8125C127.474 49.224 127.711 46.8815 128.039 44.7852C128.057 44.6393 128.076 44.5026 128.094 44.375C128.695 40.6927 129.488 37.056 130.473 33.4648C131.457 29.8737 132.542 26.3099 133.727 22.7734C134.638 20.1484 135.586 17.5417 136.57 14.9531C137.318 12.9297 138.056 10.8971 138.785 8.85547C139.277 7.48828 139.706 6.11198 140.07 4.72656C138.266 7.57031 135.987 11.5807 133.234 16.7578C131.047 20.8776 128.732 25.0703 126.289 29.3359C123.846 33.5833 121.431 37.3112 119.043 40.5195C116.655 43.7096 114.449 45.7695 112.426 46.6992C111.059 47.2096 109.883 47.1458 108.898 46.5078C107.932 45.8516 107.221 44.8763 106.766 43.582C106.237 41.668 106.118 39.7357 106.41 37.7852C106.082 37.5846 105.9 37.293 105.863 36.9102C105.827 36.5273 105.964 36.2083 106.273 35.9531C106.438 35.8438 106.602 35.707 106.766 35.543C107.44 32.3893 108.406 29.3268 109.664 26.3555C110.922 23.3659 112.335 20.4674 113.902 17.6602C113.993 17.5326 114.094 17.3776 114.203 17.1953C114.75 16.2109 115.497 14.9805 116.445 13.5039C117.393 12.0273 118.396 10.724 119.453 9.59375C120.529 8.46354 121.522 7.9349 122.434 8.00781C122.507 8.02604 122.57 8.03516 122.625 8.03516L122.707 8.0625C123.236 8.29948 123.546 8.68229 123.637 9.21094C123.728 9.73958 123.691 10.3047 123.527 10.9062C123.382 11.5078 123.217 12.0456 123.035 12.5195C122.999 12.6289 122.971 12.7292 122.953 12.8203C122.443 14.151 121.878 15.4362 121.258 16.6758C118.195 22.8919 114.622 28.8073 110.539 34.4219C109.901 35.2969 109.199 36.1354 108.434 36.9375C108.434 36.9922 108.424 37.0469 108.406 37.1016C108.26 37.849 108.115 38.7786 107.969 39.8906C107.841 41.0026 107.832 42.1146 107.941 43.2266C108.069 44.3203 108.434 45.2318 109.035 45.9609C109.819 46.7812 110.685 47.0182 111.633 46.6719C112.581 46.3255 113.547 45.6419 114.531 44.6211C115.516 43.6003 116.427 42.4883 117.266 41.2852C118.122 40.082 118.842 39.0247 119.426 38.1133C119.736 37.6211 119.991 37.2383 120.191 36.9648C122.507 33.5742 124.676 30.0924 126.699 26.5195C128.723 22.9466 130.682 19.3464 132.578 15.7188C132.961 14.9531 133.462 13.9779 134.082 12.793C134.829 11.3164 135.595 9.83073 136.379 8.33594C137.163 6.84115 137.801 5.64714 138.293 4.75391C138.329 4.71745 138.357 4.67188 138.375 4.61719C138.612 4.19792 138.949 3.66016 139.387 3.00391C139.824 2.32943 140.316 1.80078 140.863 1.41797C141.41 1.01693 141.948 0.998698 142.477 1.36328ZM110.484 29.6094C110.193 30.4844 109.91 31.3503 109.637 32.207C112.645 28.1602 115.379 23.931 117.84 19.5195C119.207 17.168 120.392 14.7435 121.395 12.2461C121.431 12.1914 121.458 12.1367 121.477 12.082C121.823 11.2617 122.023 10.4414 122.078 9.62109C122.078 9.62109 122.069 9.62109 122.051 9.62109C121.413 9.93099 120.766 10.4688 120.109 11.2344C119.471 11.9818 118.943 12.6562 118.523 13.2578C116.609 16.0651 114.951 19.0091 113.547 22.0898C112.417 24.5508 111.396 27.0573 110.484 29.6094ZM191.312 33.3281C191.385 33.4375 191.431 33.5651 191.449 33.7109C191.467 33.8385 191.458 33.957 191.422 34.0664C191.404 34.1393 191.376 34.2031 191.34 34.2578C191.303 34.2943 191.267 34.3398 191.23 34.3945C191.176 34.431 191.13 34.4674 191.094 34.5039L191.039 34.5312C191.003 34.5677 190.975 34.5951 190.957 34.6133C190.829 34.668 190.72 34.7135 190.629 34.75C190.428 34.8411 190.237 34.8503 190.055 34.7773C189.872 34.6862 189.736 34.5495 189.645 34.3672C189.608 34.2578 189.59 34.1484 189.59 34.0391C189.553 34.0391 189.517 34.0299 189.48 34.0117C188.934 33.9206 188.378 33.8385 187.812 33.7656C186.664 33.6562 185.516 33.5924 184.367 33.5742C183.292 33.5378 182.216 33.5378 181.141 33.5742C180.721 35.4518 180.393 37.3385 180.156 39.2344C180.029 40.2188 179.965 41.194 179.965 42.1602C179.928 43.1081 180.038 44.0195 180.293 44.8945C180.402 45.1862 180.548 45.4232 180.73 45.6055C180.931 45.7695 181.195 45.8151 181.523 45.7422C182.016 45.6875 182.371 45.8151 182.59 46.125C182.827 46.4167 182.9 46.7448 182.809 47.1094C182.717 47.4922 182.435 47.7565 181.961 47.9023C180.156 47.9753 179.035 47.1276 178.598 45.3594C178.379 44.0833 178.388 42.6615 178.625 41.0938C178.88 39.526 179.172 38.0586 179.5 36.6914C179.555 36.4909 179.6 36.2904 179.637 36.0898C179.837 35.2513 180.047 34.4219 180.266 33.6016C179.026 33.638 177.796 33.7201 176.574 33.8477C174.551 34.0299 172.555 34.3398 170.586 34.7773C169.456 35.0143 168.353 35.3242 167.277 35.707C166.184 36.0716 165.172 36.5456 164.242 37.1289C163.951 37.2747 163.704 37.2839 163.504 37.1562C163.322 37.0104 163.221 36.819 163.203 36.582C163.185 36.3451 163.312 36.1445 163.586 35.9805C165.792 35.0326 168.07 34.3763 170.422 34.0117C172.719 33.5924 175.034 33.2826 177.367 33.082C178.406 32.9909 179.445 32.9089 180.484 32.8359C180.867 31.3776 181.259 29.9193 181.66 28.4609C182.882 24.2318 183.93 19.957 184.805 15.6367C184.823 15.5273 184.85 15.3997 184.887 15.2539C185.014 14.543 185.151 13.6406 185.297 12.5469C185.461 11.4531 185.516 10.4323 185.461 9.48438C185.406 8.53646 185.151 7.91667 184.695 7.625C184.622 7.60677 184.522 7.59766 184.395 7.59766C184.285 7.57943 184.185 7.57943 184.094 7.59766L183.93 7.625C183.875 7.64323 183.811 7.66146 183.738 7.67969C183.702 7.69792 183.665 7.71615 183.629 7.73438C181.879 8.55469 179.892 10.3138 177.668 13.0117C175.462 15.7096 173.247 18.8177 171.023 22.3359C168.799 25.8542 166.785 29.2448 164.98 32.5078C163.176 35.7708 161.809 38.3685 160.879 40.3008C159.056 43.8555 157.461 47.4922 156.094 51.2109C155.893 51.6667 155.602 51.9128 155.219 51.9492C154.836 51.9857 154.508 51.8672 154.234 51.5938C153.979 51.3203 153.915 50.9466 154.043 50.4727C155.52 46.6992 157.206 43.026 159.102 39.4531C160.997 35.8802 162.984 32.3529 165.062 28.8711C168.143 23.6576 171.543 18.6536 175.262 13.8594C175.335 13.7865 175.398 13.7135 175.453 13.6406C176.474 12.3464 177.659 11.0065 179.008 9.62109C180.375 8.21745 181.797 7.21484 183.273 6.61328C183.31 6.61328 183.346 6.60417 183.383 6.58594C183.474 6.54948 183.574 6.52214 183.684 6.50391C184.85 6.33984 185.625 6.63151 186.008 7.37891C186.391 8.1263 186.555 9.02865 186.5 10.0859C186.464 11.1432 186.372 12.0547 186.227 12.8203C185.698 15.7005 185.023 18.5443 184.203 21.3516C184.057 21.9531 183.902 22.5456 183.738 23.1289C183.592 23.6576 183.447 24.1862 183.301 24.7148C182.59 27.3945 181.924 30.0833 181.305 32.7812C183.492 32.6536 185.68 32.6081 187.867 32.6445C187.995 32.6445 188.122 32.6445 188.25 32.6445C189.052 32.6445 189.854 32.7357 190.656 32.918C190.747 32.9362 190.857 32.9727 190.984 33.0273C191.076 33.082 191.158 33.1458 191.23 33.2188C191.249 33.237 191.267 33.2552 191.285 33.2734C191.303 33.2917 191.312 33.3099 191.312 33.3281ZM216.469 35.7617C216.888 35.8164 217.152 35.9896 217.262 36.2812C217.389 36.5547 217.38 36.8372 217.234 37.1289C217.107 37.4023 216.842 37.5573 216.441 37.5938C214.801 37.2292 213.142 37.0286 211.465 36.9922C209.095 36.974 206.826 37.4115 204.656 38.3047C204.328 39.9818 203.882 41.6042 203.316 43.1719C202.186 46.3802 200.682 49.388 198.805 52.1953C198.404 52.7786 197.875 53.4167 197.219 54.1094C196.581 54.8021 195.879 55.2943 195.113 55.5859C194.366 55.8776 193.628 55.7135 192.898 55.0938C192.862 55.0573 192.835 55.0208 192.816 54.9844C192.78 54.9479 192.753 54.9115 192.734 54.875C192.315 54.1094 192.215 53.1615 192.434 52.0312C192.671 50.901 193.044 49.7799 193.555 48.668C194.065 47.5742 194.53 46.681 194.949 45.9883C195.915 44.3659 197.036 42.862 198.312 41.4766C199.589 40.0729 201.065 38.9154 202.742 38.0039C202.852 37.3659 202.915 36.6641 202.934 35.8984C202.952 35.1146 202.806 34.4492 202.496 33.9023C202.423 33.8294 202.359 33.7656 202.305 33.7109C202.286 33.7109 202.259 33.7018 202.223 33.6836C202.186 33.6654 202.159 33.6471 202.141 33.6289C202.104 33.6289 202.068 33.6198 202.031 33.6016C202.013 33.5833 201.995 33.5742 201.977 33.5742C201.01 33.3919 199.98 33.8385 198.887 34.9141C197.811 35.9896 196.818 37.2292 195.906 38.6328C194.995 40.0365 194.32 41.1393 193.883 41.9414C193.081 43.3451 192.333 44.7852 191.641 46.2617C191.458 46.6081 191.203 46.8086 190.875 46.8633C190.547 46.8997 190.255 46.8268 190 46.6445C189.727 46.4622 189.581 46.1706 189.562 45.7695C189.708 42.069 190.128 38.3958 190.82 34.75C191.513 31.1042 192.388 27.513 193.445 23.9766C194.284 21.1328 195.277 18.3529 196.426 15.6367C197.264 13.5586 198.294 11.5716 199.516 9.67578C199.953 9.0013 200.464 8.35417 201.047 7.73438C201.63 7.09635 202.314 6.64974 203.098 6.39453C203.608 6.26693 204.073 6.29427 204.492 6.47656C204.911 6.65885 205.203 6.99609 205.367 7.48828C205.549 8.18099 205.577 8.85547 205.449 9.51172C205.212 10.806 204.857 12.0729 204.383 13.3125C203.909 14.5521 203.398 15.7643 202.852 16.9492C200.992 20.9961 198.832 24.8698 196.371 28.5703C195.733 29.5182 195.049 30.4297 194.32 31.3047C194.065 31.5964 193.773 31.888 193.445 32.1797C193.318 32.3073 193.172 32.3893 193.008 32.4258C192.443 35.3242 192.06 38.2409 191.859 41.1758C192.479 40.0273 193.354 38.6237 194.484 36.9648C195.615 35.306 196.882 33.9115 198.285 32.7812C199.689 31.6328 201.138 31.2591 202.633 31.6602L202.824 31.7422C203.025 31.8333 203.216 31.9336 203.398 32.043C204.164 32.6445 204.62 33.4102 204.766 34.3398C204.911 35.2513 204.93 36.1536 204.82 37.0469C206.698 36.3724 208.621 35.9622 210.59 35.8164C212.559 35.6706 214.518 35.6523 216.469 35.7617ZM194.922 24.4141C194.539 25.7995 194.174 27.1849 193.828 28.5703C195.688 26.1094 197.374 23.5299 198.887 20.832C199.033 20.5768 199.178 20.3307 199.324 20.0938C199.725 19.4193 200.281 18.4076 200.992 17.0586C201.703 15.6914 202.396 14.2604 203.07 12.7656C203.745 11.2526 204.228 9.9401 204.52 8.82812C204.811 7.71615 204.747 7.06901 204.328 6.88672C203.617 6.77734 202.678 7.60677 201.512 9.375C200.363 11.125 199.188 13.3672 197.984 16.1016C196.781 18.8359 195.76 21.6068 194.922 24.4141ZM201.539 42.5703C201.885 41.5495 202.186 40.5195 202.441 39.4805C201.074 40.3555 199.871 41.4219 198.832 42.6797C197.793 43.9193 196.882 45.2409 196.098 46.6445C195.533 47.6836 194.94 48.9961 194.32 50.582C193.701 52.168 193.427 53.5352 193.5 54.6836C193.536 54.8294 193.573 54.9206 193.609 54.957C193.609 54.9753 193.609 54.9844 193.609 54.9844C193.628 54.9844 193.637 54.9844 193.637 54.9844C193.673 55.0208 193.71 55.0391 193.746 55.0391C194.53 55.0938 195.46 54.3099 196.535 52.6875C197.611 51.0833 198.613 49.2695 199.543 47.2461C200.491 45.2409 201.156 43.6823 201.539 42.5703ZM237.742 36.2539C237.797 36.3815 237.824 36.5182 237.824 36.6641C237.806 36.9193 237.715 37.1016 237.551 37.2109C237.387 37.3203 237.204 37.3568 237.004 37.3203C236.803 37.2656 236.658 37.1289 236.566 36.9102C236.548 36.8919 236.521 36.8646 236.484 36.8281C236.411 36.737 236.329 36.6458 236.238 36.5547C235.801 36.3906 235.327 36.2812 234.816 36.2266C234.798 36.2266 234.78 36.2174 234.762 36.1992C233.887 36.0898 232.993 36.026 232.082 36.0078C229.658 35.9349 227.233 35.944 224.809 36.0352C224.663 36.0534 224.535 36.1081 224.426 36.1992C224.316 36.2904 224.253 36.4089 224.234 36.5547C223.87 38.5964 222.949 40.3372 221.473 41.7773C221.454 41.7956 221.427 41.8138 221.391 41.832C221.318 41.9049 221.254 41.9688 221.199 42.0234C220.944 42.224 220.689 42.4245 220.434 42.625C219.978 42.9531 219.449 43.1901 218.848 43.3359C218.264 43.4635 217.708 43.3633 217.18 43.0352L217.07 42.9531C216.997 42.8984 216.924 42.8346 216.852 42.7617C216.724 42.6341 216.615 42.4974 216.523 42.3516C216.013 41.4583 215.785 40.4648 215.84 39.3711C215.876 38.2591 216.049 37.2383 216.359 36.3086C216.724 35.069 217.344 33.9479 218.219 32.9453C219.094 31.9245 220.206 31.3867 221.555 31.332C221.773 31.332 222.056 31.3867 222.402 31.4961C222.749 31.5872 223.022 31.7331 223.223 31.9336C223.441 32.1159 223.46 32.362 223.277 32.6719C223.186 32.7812 223.059 32.8633 222.895 32.918C222.749 32.9544 222.63 32.918 222.539 32.8086C221.846 32.0247 221.181 31.6875 220.543 31.7969C219.923 31.9062 219.422 32.2799 219.039 32.918C218.602 33.6836 218.255 34.7044 218 35.9805C217.745 37.2565 217.617 38.332 217.617 39.207C217.617 39.5352 217.645 39.8724 217.699 40.2188C217.754 40.5651 217.854 40.8659 218 41.1211C218.073 41.2487 218.173 41.3307 218.301 41.3672C218.556 41.4583 218.939 41.3307 219.449 40.9844C219.978 40.6198 220.488 40.0547 220.98 39.2891C221.473 38.5234 221.81 37.5664 221.992 36.418C222.01 36.2721 221.983 36.1354 221.91 36.0078C221.837 35.8802 221.728 35.7891 221.582 35.7344C221.309 35.6432 221.044 35.5065 220.789 35.3242C220.552 35.1419 220.37 34.8958 220.242 34.5859C220.133 34.2943 220.142 34.0026 220.27 33.7109C220.397 33.401 220.607 33.1823 220.898 33.0547C221.117 32.9453 221.29 32.8906 221.418 32.8906C221.91 32.8542 222.421 32.9635 222.949 33.2188C223.478 33.474 223.879 33.8203 224.152 34.2578C224.225 34.4036 224.344 34.4948 224.508 34.5312C226.604 34.9505 228.728 35.1419 230.879 35.1055C231.298 35.1237 231.708 35.1328 232.109 35.1328C232.164 35.1328 232.219 35.1328 232.273 35.1328C233.13 35.151 233.996 35.1875 234.871 35.2422C234.962 35.2422 235.053 35.2513 235.145 35.2695C235.783 35.2695 236.421 35.388 237.059 35.625C237.186 35.6797 237.314 35.7617 237.441 35.8711C237.569 35.9805 237.669 36.1081 237.742 36.2539ZM263.145 36.0898C263.272 36.2539 263.327 36.4362 263.309 36.6367C263.29 36.8372 263.199 37.0013 263.035 37.1289C263.017 37.1471 263.008 37.1562 263.008 37.1562C262.625 37.375 262.197 37.6211 261.723 37.8945C260.41 38.6602 258.906 39.4896 257.211 40.3828C255.534 41.2578 253.866 41.987 252.207 42.5703C250.566 43.1536 249.135 43.3815 247.914 43.2539C247.75 43.2174 247.586 43.1719 247.422 43.1172C247.112 42.9896 246.829 42.8164 246.574 42.5977C246.447 42.4883 246.337 42.3698 246.246 42.2422C245.499 41.0755 245.207 39.6354 245.371 37.9219C245.371 37.8307 245.326 37.776 245.234 37.7578C245.161 37.7214 245.098 37.7396 245.043 37.8125C244.296 38.8516 243.493 39.8542 242.637 40.8203C242.09 41.4036 241.452 41.9596 240.723 42.4883C240.012 43.0169 239.219 43.2448 238.344 43.1719C238.307 43.1719 238.262 43.1628 238.207 43.1445C238.207 43.1445 238.198 43.1445 238.18 43.1445C237.396 42.944 236.812 42.4883 236.43 41.7773C235.956 40.7201 235.792 39.5625 235.938 38.3047C236.065 37.0286 236.293 35.8529 236.621 34.7773C236.858 34.0117 237.159 33.2643 237.523 32.5352C237.651 32.2799 237.806 32.0247 237.988 31.7695C238.171 31.5143 238.398 31.3685 238.672 31.332C238.964 31.2773 239.237 31.332 239.492 31.4961C239.747 31.6966 239.893 31.9427 239.93 32.2344C239.984 32.5078 239.93 32.7721 239.766 33.0273C239.201 33.9753 238.736 35.2057 238.371 36.7188C238.025 38.2318 237.988 39.5078 238.262 40.5469C238.28 40.6198 238.307 40.6836 238.344 40.7383C238.344 40.7565 238.344 40.7656 238.344 40.7656C238.398 40.8932 238.48 40.9935 238.59 41.0664C238.608 41.0664 238.635 41.0755 238.672 41.0938C238.672 41.0938 238.681 41.0938 238.699 41.0938C238.717 41.0938 238.745 41.0938 238.781 41.0938C239.784 40.7656 240.868 39.8906 242.035 38.4688C243.22 37.0469 244.132 35.862 244.77 34.9141C245.335 34.112 245.882 33.2917 246.41 32.4531C246.592 32.1979 246.82 32.0703 247.094 32.0703C247.367 32.0703 247.595 32.1706 247.777 32.3711C247.96 32.5716 248.014 32.8268 247.941 33.1367C247.887 33.3372 247.823 33.5469 247.75 33.7656C247.294 35.1328 246.93 36.5273 246.656 37.9492C246.529 38.6602 246.474 39.4258 246.492 40.2461C246.529 41.0664 246.839 41.7227 247.422 42.2148C247.513 42.2695 247.613 42.3242 247.723 42.3789C247.832 42.4154 247.941 42.4518 248.051 42.4883C248.051 42.4883 248.06 42.4883 248.078 42.4883C249.445 42.6341 251.013 42.3424 252.781 41.6133C254.549 40.8659 256.272 39.9544 257.949 38.8789C259.626 37.8034 261.003 36.8281 262.078 35.9531C262.242 35.8255 262.424 35.7799 262.625 35.8164C262.826 35.8346 262.999 35.9258 263.145 36.0898ZM294.809 19.6016C294.827 19.6745 294.845 19.7474 294.863 19.8203C294.863 19.8932 294.854 19.9753 294.836 20.0664C294.763 20.3581 294.608 20.5495 294.371 20.6406C294.134 20.7318 293.906 20.7227 293.688 20.6133C293.469 20.4857 293.341 20.2669 293.305 19.957C292.812 19.7018 292.257 19.5286 291.637 19.4375C291.637 19.4375 291.628 19.4375 291.609 19.4375C291.172 19.3464 290.716 19.2826 290.242 19.2461C287.927 19.0091 285.585 18.8997 283.215 18.918C279.204 18.918 275.194 19.0182 271.184 19.2188C270.454 20.4766 269.689 21.7161 268.887 22.9375C268.285 23.8672 267.629 24.7786 266.918 25.6719C266.863 25.7448 266.79 25.8086 266.699 25.8633C265.934 28.306 265.232 30.7669 264.594 33.2461C264.484 33.6654 264.32 34.2214 264.102 34.9141C263.664 36.3724 263.163 38.1862 262.598 40.3555C262.033 42.5247 261.604 44.7669 261.312 47.082C261.021 49.4154 261.048 51.5299 261.395 53.4258C261.723 55.3398 262.561 56.7435 263.91 57.6367C264.147 57.7643 264.402 57.8099 264.676 57.7734C264.913 57.7734 265.104 57.8555 265.25 58.0195C265.414 58.1836 265.505 58.3841 265.523 58.6211C265.523 58.8581 265.441 59.0495 265.277 59.1953C265.132 59.3594 264.94 59.4505 264.703 59.4688C264.539 59.4688 264.384 59.4323 264.238 59.3594C263.491 58.9948 262.889 58.5208 262.434 57.9375C261.522 56.5703 260.984 55.0117 260.82 53.2617C260.638 51.5117 260.592 49.8346 260.684 48.2305C260.939 44.3659 261.449 40.5286 262.215 36.7188C262.98 32.8906 263.928 29.1172 265.059 25.3984C264.913 25.0156 264.967 24.651 265.223 24.3047C265.296 24.1953 265.378 24.0859 265.469 23.9766C265.487 23.9583 265.505 23.931 265.523 23.8945C266.016 22.3997 266.535 20.9049 267.082 19.4102C265.788 19.4648 264.402 19.5286 262.926 19.6016C260.046 19.7292 257.357 19.875 254.859 20.0391C254.349 20.0573 253.848 20.0938 253.355 20.1484C252.171 20.2578 250.977 20.2852 249.773 20.2305C249.755 20.2305 249.737 20.2305 249.719 20.2305C249.591 20.2122 249.445 20.1758 249.281 20.1211C249.227 20.1029 249.172 20.0755 249.117 20.0391C249.081 20.0208 249.044 20.0026 249.008 19.9844C248.935 19.9479 248.88 19.8932 248.844 19.8203C248.753 19.7292 248.689 19.6198 248.652 19.4922C248.616 19.3099 248.625 19.1367 248.68 18.9727C248.826 18.6445 249.053 18.4805 249.363 18.4805C249.673 18.4805 249.91 18.6354 250.074 18.9453C251.46 19.2552 252.872 19.4102 254.312 19.4102C254.495 19.4102 254.677 19.4102 254.859 19.4102C257.794 19.4102 260.911 19.2917 264.211 19.0547C265.286 19 266.307 18.9453 267.273 18.8906C267.784 17.4688 268.595 15.4727 269.707 12.9023C270.837 10.332 272.077 7.88932 273.426 5.57422C274.793 3.24089 276.069 1.74609 277.254 1.08984C277.582 0.94401 277.928 0.907552 278.293 0.980469C278.658 1.05339 278.931 1.26302 279.113 1.60938C279.168 1.73698 279.195 1.84635 279.195 1.9375C279.214 2.0651 279.223 2.16536 279.223 2.23828C279.15 2.7487 279.022 3.23177 278.84 3.6875C278.822 3.76042 278.794 3.84245 278.758 3.93359C278.576 4.46224 278.375 4.98177 278.156 5.49219C276.188 9.99479 273.982 14.3698 271.539 18.6172C272.141 18.5807 272.751 18.5443 273.371 18.5078C277.691 18.2344 281.921 18.043 286.059 17.9336C286.296 17.9336 286.56 17.9336 286.852 17.9336C288.036 17.8971 289.349 17.9245 290.789 18.0156C292.247 18.0885 293.368 18.3255 294.152 18.7266C294.316 18.8177 294.48 18.9727 294.645 19.1914C294.681 19.2461 294.717 19.3099 294.754 19.3828C294.772 19.4557 294.79 19.5286 294.809 19.6016ZM249.855 18.8633L249.91 18.8906C249.91 18.8906 249.919 18.8906 249.938 18.8906C249.919 18.8724 249.901 18.8542 249.883 18.8359C249.865 18.8359 249.855 18.8359 249.855 18.8359C249.837 18.8359 249.828 18.8359 249.828 18.8359C249.846 18.8542 249.855 18.8633 249.855 18.8633ZM274.219 8.25391C272.742 10.9518 271.402 13.7227 270.199 16.5664C272.204 13.0482 274.046 9.4388 275.723 5.73828C275.194 6.55859 274.693 7.39714 274.219 8.25391ZM293.359 20.0117C293.359 20.0117 293.359 20.0026 293.359 19.9844C293.359 20.0026 293.359 20.0208 293.359 20.0391C293.378 20.0391 293.378 20.0299 293.359 20.0117ZM336.699 4.91797C336.827 5.02734 336.918 5.18229 336.973 5.38281C337.046 5.5651 337.073 5.7474 337.055 5.92969C337.018 6.14844 336.945 6.33984 336.836 6.50391C336.708 6.70443 336.562 6.8776 336.398 7.02344C336.38 7.0599 336.353 7.09635 336.316 7.13281C336.079 7.35156 335.806 7.46094 335.496 7.46094C335.204 7.46094 334.949 7.35156 334.73 7.13281C334.475 6.85938 334.366 6.55859 334.402 6.23047C333.819 6.17578 333.236 6.13932 332.652 6.12109C329.098 6.13932 325.552 6.34896 322.016 6.75C318.497 7.15104 314.979 7.61589 311.461 8.14453C309.583 8.45443 307.706 8.78255 305.828 9.12891C304.589 11.4258 303.504 13.8138 302.574 16.293C301.809 18.2435 300.815 20.9232 299.594 24.332C298.391 27.7409 297.233 31.2865 296.121 34.9688C295.027 38.651 294.289 41.8867 293.906 44.6758C293.523 47.4466 293.779 49.1784 294.672 49.8711C295.018 50.1445 295.173 50.4635 295.137 50.8281C295.1 51.1927 294.936 51.4753 294.645 51.6758C294.353 51.8945 293.988 51.9219 293.551 51.7578C293.314 51.612 293.132 51.4388 293.004 51.2383C292.986 51.2018 292.967 51.1745 292.949 51.1562C292.949 51.1562 292.949 51.1471 292.949 51.1289L292.895 51.0469C292.694 50.5 292.612 49.9714 292.648 49.4609C292.667 48.9141 292.703 48.3763 292.758 47.8477C293.159 44.8216 293.66 41.8229 294.262 38.8516C295.848 30.9583 297.898 23.1745 300.414 15.5C301.052 13.5677 301.763 11.6445 302.547 9.73047C298.263 10.5508 294.034 11.599 289.859 12.875C289.805 12.8932 289.75 12.9115 289.695 12.9297C289.021 13.1484 288.374 13.4036 287.754 13.6953C287.717 13.7318 287.672 13.7591 287.617 13.7773C287.417 14.069 287.152 14.224 286.824 14.2422C286.496 14.2604 286.204 14.1693 285.949 13.9688C285.712 13.75 285.612 13.431 285.648 13.0117C285.648 12.957 285.658 12.9023 285.676 12.8477C285.694 12.793 285.712 12.7474 285.73 12.7109C285.767 12.6016 285.831 12.5013 285.922 12.4102C285.94 12.3737 285.967 12.3372 286.004 12.3008C286.46 11.9544 286.961 11.7448 287.508 11.6719C287.617 11.6354 287.727 11.599 287.836 11.5625C288.383 11.4531 288.921 11.3438 289.449 11.2344C293.277 10.5599 297.753 9.8125 302.875 8.99219C303.185 8.29948 303.513 7.61589 303.859 6.94141C304.388 5.86589 305.099 4.90885 305.992 4.07031C306.32 3.79688 306.685 3.67839 307.086 3.71484C307.487 3.7513 307.824 3.92448 308.098 4.23438C308.371 4.59896 308.48 4.99089 308.426 5.41016C308.371 5.82943 308.161 6.16667 307.797 6.42188C307.195 6.96875 306.685 7.60677 306.266 8.33594C306.266 8.35417 306.257 8.3724 306.238 8.39062C306.238 8.40885 306.229 8.42708 306.211 8.44531C308.125 8.13542 309.848 7.85286 311.379 7.59766C313.311 7.28776 315.243 6.96875 317.176 6.64062C322.553 5.69271 327.967 4.9362 333.418 4.37109C333.947 4.33464 334.512 4.32552 335.113 4.34375C335.624 4.34375 336.107 4.48958 336.562 4.78125C336.617 4.81771 336.663 4.86328 336.699 4.91797ZM334.566 35.8164C334.785 35.9622 334.922 36.1536 334.977 36.3906C335.031 36.6276 334.986 36.8555 334.84 37.0742C334.639 37.3294 334.411 37.5482 334.156 37.7305C334.138 37.7487 334.111 37.776 334.074 37.8125C332.671 38.8516 331.176 39.7448 329.59 40.4922C327.858 41.3854 326.062 42.1419 324.203 42.7617C323.565 42.9805 322.909 43.1263 322.234 43.1992C321.578 43.2539 320.94 43.1536 320.32 42.8984C319.609 42.5521 319.135 42.0234 318.898 41.3125C318.661 40.6016 318.507 39.8633 318.434 39.0977C318.361 38.4779 318.251 37.931 318.105 37.457C317.978 36.9831 317.714 36.6823 317.312 36.5547C316.729 36.5365 316.091 36.8919 315.398 37.6211C314.706 38.3503 314.031 39.207 313.375 40.1914C312.737 41.1758 312.19 42.0508 311.734 42.8164C311.534 43.1628 311.37 43.4453 311.242 43.6641L309.41 46.7539C309.41 46.7539 309.41 46.763 309.41 46.7812C309.41 46.7812 309.41 46.7904 309.41 46.8086C309.228 47.082 308.982 47.2461 308.672 47.3008C308.362 47.3555 308.07 47.2917 307.797 47.1094C307.049 46.4714 306.667 45.3594 306.648 43.7734C306.63 42.1693 306.785 40.474 307.113 38.6875C307.441 36.901 307.751 35.4245 308.043 34.2578C308.116 33.9844 308.171 33.7474 308.207 33.5469C307.842 33.6016 307.469 33.5924 307.086 33.5195C306.776 33.4466 306.548 33.2917 306.402 33.0547C306.238 32.7995 306.184 32.5169 306.238 32.207C306.311 31.9154 306.475 31.6875 306.73 31.5234C306.967 31.3594 307.232 31.3047 307.523 31.3594C307.76 31.4323 307.988 31.4323 308.207 31.3594C308.426 31.2682 308.645 31.1497 308.863 31.0039C309.082 30.1107 309.492 28.6797 310.094 26.7109C310.714 24.7422 311.452 22.5638 312.309 20.1758C313.184 17.7695 314.141 15.4818 315.18 13.3125C316.219 11.125 317.276 9.375 318.352 8.0625C319.427 6.73177 320.475 6.15755 321.496 6.33984C321.533 6.35807 321.569 6.36719 321.605 6.36719C322.225 6.64062 322.535 7.13281 322.535 7.84375C322.535 8.55469 322.453 9.21094 322.289 9.8125C322.271 9.90365 322.253 9.99479 322.234 10.0859C321.633 12.3464 320.876 14.5521 319.965 16.7031C319.072 18.8542 318.087 20.9688 317.012 23.0469C315.626 25.8542 313.94 28.4883 311.953 30.9492C311.461 31.5143 310.905 32.043 310.285 32.5352C309.866 34.3398 309.492 36.1628 309.164 38.0039C308.854 39.8268 308.708 41.6497 308.727 43.4727C308.818 43.3268 308.909 43.1719 309 43.0078C309.547 42.0599 310.212 40.9935 310.996 39.8086C311.78 38.6055 312.628 37.5208 313.539 36.5547C314.469 35.5885 315.417 34.987 316.383 34.75C317.203 34.5859 317.905 34.7135 318.488 35.1328C319.072 35.5521 319.454 36.1628 319.637 36.9648C319.746 37.5482 319.792 38.2591 319.773 39.0977C319.755 39.7357 319.773 40.3464 319.828 40.9297C319.883 41.513 320.038 41.9779 320.293 42.3242C320.785 42.7799 321.797 42.7617 323.328 42.2695C324.859 41.7591 326.764 40.8294 329.043 39.4805C330.283 38.7878 331.422 37.9766 332.461 37.0469C332.807 36.737 333.09 36.418 333.309 36.0898C333.454 35.8711 333.646 35.7344 333.883 35.6797C334.12 35.625 334.348 35.6706 334.566 35.8164ZM312.609 24.1953C312.135 25.6901 311.689 27.1849 311.27 28.6797C312.874 26.6562 314.277 24.5052 315.48 22.2266C316.939 19.5651 318.224 16.8216 319.336 13.9961C319.883 12.5924 320.348 11.1706 320.73 9.73047C320.73 9.71224 320.73 9.69401 320.73 9.67578C320.895 9.07422 320.977 8.46354 320.977 7.84375C320.357 8.08073 319.764 8.59115 319.199 9.375C318.652 10.1589 318.206 10.8698 317.859 11.5078C317.841 11.5443 317.823 11.5807 317.805 11.6172C315.69 15.6458 313.958 19.8385 312.609 24.1953ZM309.109 45.3594H309.137C309.137 45.3594 309.128 45.3594 309.109 45.3594ZM356.004 36.1719C356.168 36.4271 356.204 36.6914 356.113 36.9648C356.04 37.2383 355.876 37.4388 355.621 37.5664C355.238 37.7305 354.819 37.9219 354.363 38.1406C352.559 38.9974 350.398 39.9362 347.883 40.957C345.367 41.9779 342.906 42.7435 340.5 43.2539C338.112 43.7461 336.198 43.6367 334.758 42.9258C334.63 42.8529 334.512 42.7799 334.402 42.707C334.384 42.707 334.375 42.707 334.375 42.707C333.227 41.832 332.671 40.7018 332.707 39.3164C332.743 37.9128 333.163 36.5365 333.965 35.1875C334.785 33.8203 335.797 32.7448 337 31.9609C338.203 31.1771 339.415 30.9674 340.637 31.332C340.728 31.3685 340.819 31.4049 340.91 31.4414C340.928 31.4596 340.956 31.4779 340.992 31.4961C341.047 31.5143 341.092 31.5326 341.129 31.5508L341.156 31.5781C341.521 31.7786 341.776 32.0794 341.922 32.4805C342.068 32.8633 342.104 33.2461 342.031 33.6289C341.867 34.4674 341.521 35.2513 340.992 35.9805C340.482 36.6914 339.898 37.3021 339.242 37.8125C338.349 38.5599 337.319 39.0339 336.152 39.2344C335.587 39.3255 335.004 39.2891 334.402 39.125C334.348 39.5807 334.43 40.1641 334.648 40.875C334.885 41.5677 335.277 42.0872 335.824 42.4336C336.954 42.9622 338.34 43.0534 339.98 42.707C341.621 42.3607 343.271 41.8229 344.93 41.0938C346.607 40.3464 348.047 39.6628 349.25 39.043C349.451 38.9336 349.633 38.8333 349.797 38.7422C351.492 37.9036 353.124 36.9648 354.691 35.9258C354.91 35.7799 355.138 35.7344 355.375 35.7891C355.63 35.8255 355.84 35.9531 356.004 36.1719ZM337.137 34.5312C336.408 35.1328 335.742 35.9714 335.141 37.0469C335.833 37.1016 336.48 36.9375 337.082 36.5547C337.702 36.1719 338.249 35.7161 338.723 35.1875C339.215 34.6589 339.57 34.0664 339.789 33.4102C339.315 33.319 338.841 33.401 338.367 33.6562C337.893 33.9115 337.483 34.2031 337.137 34.5312ZM403.691 35.7617C403.855 35.7617 404.01 35.862 404.156 36.0625C404.32 36.263 404.448 36.5091 404.539 36.8008C404.63 37.0742 404.676 37.3203 404.676 37.5391C404.694 37.7578 404.621 37.8763 404.457 37.8945C400.465 37.9857 396.281 38.4232 391.906 39.207C391.742 40.3555 391.241 41.431 390.402 42.4336C389.582 43.418 388.698 44.2656 387.75 44.9766C385.544 46.6536 382.764 48.2122 379.41 49.6523C376.056 51.1107 373.012 51.8763 370.277 51.9492C368.691 51.7487 367.734 51.1836 367.406 50.2539C367.078 49.3242 367.479 48.276 368.609 47.1094C370.487 45.4141 372.629 44.0104 375.035 42.8984C377.46 41.7682 379.866 40.8021 382.254 40C384.569 39.2161 386.921 38.5417 389.309 37.9766C389.017 37.4844 388.598 37.0469 388.051 36.6641C387.522 36.263 387.003 35.9167 386.492 35.625C386.346 35.5521 386.21 35.4701 386.082 35.3789C384.952 34.7773 383.812 34.194 382.664 33.6289C381.242 32.9544 379.848 32.2344 378.48 31.4688C377.113 30.7031 375.837 29.8008 374.652 28.7617C372.52 26.7383 371.38 24.806 371.234 22.9648C371.107 21.1055 371.672 19.3555 372.93 17.7148C374.206 16.056 375.874 14.5065 377.934 13.0664C379.611 11.8633 381.698 10.6602 384.195 9.45703C386.711 8.25391 389.281 7.33333 391.906 6.69531C394.531 6.05729 396.874 5.99349 398.934 6.50391C400.447 7.08724 401.385 8.00781 401.75 9.26562C402.133 10.5052 402.133 11.8359 401.75 13.2578C401.367 14.6615 400.793 15.9102 400.027 17.0039C399.572 17.7148 399.034 18.3529 398.414 18.918C397.958 19.2643 397.548 19.3372 397.184 19.1367C396.819 18.918 396.609 18.6081 396.555 18.207C396.5 17.7878 396.701 17.4232 397.156 17.1133C399.344 15.7643 400.738 14.3789 401.34 12.957C401.96 11.5169 401.85 10.3229 401.012 9.375C400.191 8.40885 398.697 7.94401 396.527 7.98047C393.501 8.16276 390.466 8.91016 387.422 10.2227C384.378 11.5169 381.625 13.0391 379.164 14.7891C378.253 15.4453 377.277 16.2656 376.238 17.25C375.199 18.2344 374.406 19.3099 373.859 20.4766C373.331 21.625 373.34 22.8008 373.887 24.0039C374.707 25.6263 375.883 26.957 377.414 27.9961C378.945 29.0352 380.54 29.9466 382.199 30.7305C382.582 30.931 382.956 31.1224 383.32 31.3047C383.867 31.5964 384.423 31.8789 384.988 32.1523C386.1 32.6628 387.176 33.237 388.215 33.875C389.272 34.513 390.211 35.306 391.031 36.2539C391.323 36.6549 391.542 37.0469 391.688 37.4297C395.643 36.6094 399.645 36.0534 403.691 35.7617ZM368.473 50.9648C369.074 51.5299 370.341 51.6029 372.273 51.1836C374.224 50.7643 376.393 49.9805 378.781 48.832C381.188 47.7018 383.384 46.3438 385.371 44.7578C387.358 43.1536 388.707 41.4674 389.418 39.6992C386.082 40.3919 382.855 41.3307 379.738 42.5156C376.621 43.6823 373.777 45.1133 371.207 46.8086C370.915 47.0091 370.496 47.3555 369.949 47.8477C369.384 48.3581 368.919 48.9049 368.555 49.4883C368.19 50.0716 368.163 50.5638 368.473 50.9648ZM436.34 19.6016C436.358 19.6745 436.376 19.7474 436.395 19.8203C436.395 19.8932 436.385 19.9753 436.367 20.0664C436.294 20.3581 436.139 20.5495 435.902 20.6406C435.665 20.7318 435.438 20.7227 435.219 20.6133C435 20.4857 434.872 20.2669 434.836 19.957C434.344 19.7018 433.788 19.5286 433.168 19.4375C433.168 19.4375 433.159 19.4375 433.141 19.4375C432.703 19.3464 432.247 19.2826 431.773 19.2461C429.458 19.0091 427.116 18.8997 424.746 18.918C420.736 18.918 416.725 19.0182 412.715 19.2188C411.986 20.4766 411.22 21.7161 410.418 22.9375C409.816 23.8672 409.16 24.7786 408.449 25.6719C408.395 25.7448 408.322 25.8086 408.23 25.8633C407.465 28.306 406.763 30.7669 406.125 33.2461C406.016 33.6654 405.852 34.2214 405.633 34.9141C405.195 36.3724 404.694 38.1862 404.129 40.3555C403.564 42.5247 403.135 44.7669 402.844 47.082C402.552 49.4154 402.579 51.5299 402.926 53.4258C403.254 55.3398 404.092 56.7435 405.441 57.6367C405.678 57.7643 405.934 57.8099 406.207 57.7734C406.444 57.7734 406.635 57.8555 406.781 58.0195C406.945 58.1836 407.036 58.3841 407.055 58.6211C407.055 58.8581 406.973 59.0495 406.809 59.1953C406.663 59.3594 406.471 59.4505 406.234 59.4688C406.07 59.4688 405.915 59.4323 405.77 59.3594C405.022 58.9948 404.421 58.5208 403.965 57.9375C403.053 56.5703 402.516 55.0117 402.352 53.2617C402.169 51.5117 402.124 49.8346 402.215 48.2305C402.47 44.3659 402.98 40.5286 403.746 36.7188C404.512 32.8906 405.46 29.1172 406.59 25.3984C406.444 25.0156 406.499 24.651 406.754 24.3047C406.827 24.1953 406.909 24.0859 407 23.9766C407.018 23.9583 407.036 23.931 407.055 23.8945C407.547 22.3997 408.066 20.9049 408.613 19.4102C407.319 19.4648 405.934 19.5286 404.457 19.6016C401.577 19.7292 398.888 19.875 396.391 20.0391C395.88 20.0573 395.379 20.0938 394.887 20.1484C393.702 20.2578 392.508 20.2852 391.305 20.2305C391.286 20.2305 391.268 20.2305 391.25 20.2305C391.122 20.2122 390.977 20.1758 390.812 20.1211C390.758 20.1029 390.703 20.0755 390.648 20.0391C390.612 20.0208 390.576 20.0026 390.539 19.9844C390.466 19.9479 390.411 19.8932 390.375 19.8203C390.284 19.7292 390.22 19.6198 390.184 19.4922C390.147 19.3099 390.156 19.1367 390.211 18.9727C390.357 18.6445 390.585 18.4805 390.895 18.4805C391.204 18.4805 391.441 18.6354 391.605 18.9453C392.991 19.2552 394.404 19.4102 395.844 19.4102C396.026 19.4102 396.208 19.4102 396.391 19.4102C399.326 19.4102 402.443 19.2917 405.742 19.0547C406.818 19 407.839 18.9453 408.805 18.8906C409.315 17.4688 410.126 15.4727 411.238 12.9023C412.368 10.332 413.608 7.88932 414.957 5.57422C416.324 3.24089 417.6 1.74609 418.785 1.08984C419.113 0.94401 419.46 0.907552 419.824 0.980469C420.189 1.05339 420.462 1.26302 420.645 1.60938C420.699 1.73698 420.727 1.84635 420.727 1.9375C420.745 2.0651 420.754 2.16536 420.754 2.23828C420.681 2.7487 420.553 3.23177 420.371 3.6875C420.353 3.76042 420.326 3.84245 420.289 3.93359C420.107 4.46224 419.906 4.98177 419.688 5.49219C417.719 9.99479 415.513 14.3698 413.07 18.6172C413.672 18.5807 414.283 18.5443 414.902 18.5078C419.223 18.2344 423.452 18.043 427.59 17.9336C427.827 17.9336 428.091 17.9336 428.383 17.9336C429.568 17.8971 430.88 17.9245 432.32 18.0156C433.779 18.0885 434.9 18.3255 435.684 18.7266C435.848 18.8177 436.012 18.9727 436.176 19.1914C436.212 19.2461 436.249 19.3099 436.285 19.3828C436.303 19.4557 436.322 19.5286 436.34 19.6016ZM391.387 18.8633L391.441 18.8906C391.441 18.8906 391.451 18.8906 391.469 18.8906C391.451 18.8724 391.432 18.8542 391.414 18.8359C391.396 18.8359 391.387 18.8359 391.387 18.8359C391.368 18.8359 391.359 18.8359 391.359 18.8359C391.378 18.8542 391.387 18.8633 391.387 18.8633ZM415.75 8.25391C414.273 10.9518 412.934 13.7227 411.73 16.5664C413.736 13.0482 415.577 9.4388 417.254 5.73828C416.725 6.55859 416.224 7.39714 415.75 8.25391ZM434.891 20.0117C434.891 20.0117 434.891 20.0026 434.891 19.9844C434.891 20.0026 434.891 20.0208 434.891 20.0391C434.909 20.0391 434.909 20.0299 434.891 20.0117ZM441.344 35.7344C441.672 35.7526 441.9 35.8802 442.027 36.1172C442.155 36.3542 442.164 36.6003 442.055 36.8555C441.945 37.0924 441.717 37.2292 441.371 37.2656C440.04 37.2292 438.719 37.3294 437.406 37.5664C433.268 38.4232 429.641 40.2279 426.523 42.9805C426.487 43.0352 426.46 43.0898 426.441 43.1445C425.694 46.1159 424.6 49.8529 423.16 54.3555C421.738 58.8763 420.161 63.1146 418.43 67.0703C416.698 71.026 415.003 73.6419 413.344 74.918C413.052 75.1367 412.706 75.2643 412.305 75.3008C411.922 75.3555 411.576 75.2643 411.266 75.0273C410.755 74.5352 410.491 73.7331 410.473 72.6211C410.454 71.5273 410.564 70.4062 410.801 69.2578C411.02 68.1094 411.211 67.1979 411.375 66.5234C412.487 62.3307 414.137 58.1562 416.324 54C418.53 49.862 421.273 46.2161 424.555 43.0625C424.591 43.0078 424.618 42.9531 424.637 42.8984C424.855 41.9688 425.083 41.0391 425.32 40.1094C425.958 37.6484 426.487 35.4154 426.906 33.4102C427.344 31.3867 427.517 29.8828 427.426 28.8984C427.426 28.8802 427.426 28.862 427.426 28.8438C427.408 28.6797 427.371 28.5065 427.316 28.3242C427.262 28.1419 427.143 28.0326 426.961 27.9961C426.104 28.0326 425.229 28.6615 424.336 29.8828C423.443 31.1042 422.513 32.5625 421.547 34.2578C420.799 35.5703 420.025 36.8281 419.223 38.0312C418.439 39.2344 417.628 40.2096 416.789 40.957C415.951 41.6862 415.085 42.0143 414.191 41.9414C413.262 41.7956 412.605 41.3672 412.223 40.6562C411.858 39.9453 411.703 39.1523 411.758 38.2773C411.867 37.0013 412.086 35.7799 412.414 34.6133C412.469 34.4128 412.523 34.2214 412.578 34.0391C412.596 33.9479 412.615 33.8477 412.633 33.7383C412.742 33.319 412.815 32.9089 412.852 32.5078C412.852 32.4896 412.852 32.4714 412.852 32.4531C412.815 31.9792 412.952 31.6328 413.262 31.4141C413.59 31.1953 413.936 31.1406 414.301 31.25C414.665 31.3594 414.902 31.6419 415.012 32.0977C415.048 32.4258 415.048 32.681 415.012 32.8633C415.012 32.8815 415.012 32.8997 415.012 32.918C414.975 33.3008 414.848 33.9115 414.629 34.75C414.447 35.4427 414.273 36.1628 414.109 36.9102C413.945 37.6393 413.863 38.2773 413.863 38.8242C413.882 39.3711 414.055 39.7083 414.383 39.8359C414.419 39.8359 414.456 39.8359 414.492 39.8359C414.492 39.8542 414.501 39.8633 414.52 39.8633C415.158 39.8997 415.85 39.5898 416.598 38.9336C417.345 38.2591 418.065 37.4479 418.758 36.5C419.451 35.5521 420.043 34.6862 420.535 33.9023C420.772 33.556 420.973 33.2643 421.137 33.0273C421.228 32.8815 421.319 32.7448 421.41 32.6172C422.085 31.5781 422.796 30.5664 423.543 29.582C424.017 28.9622 424.6 28.3971 425.293 27.8867C425.986 27.3763 426.742 27.3216 427.562 27.7227C427.672 27.7956 427.772 27.8776 427.863 27.9688C427.918 28.0234 427.973 28.0781 428.027 28.1328C428.465 28.7526 428.647 29.7917 428.574 31.25C428.52 32.7083 428.337 34.2669 428.027 35.9258C427.717 37.5664 427.417 38.9883 427.125 40.1914C427.107 40.3372 427.152 40.4466 427.262 40.5195C427.371 40.5742 427.49 40.5651 427.617 40.4922C429.586 39.0521 431.71 37.9128 433.988 37.0742C436.285 36.2357 438.737 35.7891 441.344 35.7344ZM412.523 73.6055C413.581 72.8581 414.766 71.0898 416.078 68.3008C417.409 65.5299 418.73 62.2214 420.043 58.375C421.374 54.5286 422.577 50.6276 423.652 46.6719C423.671 46.5807 423.652 46.4987 423.598 46.4258C423.543 46.3529 423.47 46.3164 423.379 46.3164C423.288 46.2982 423.206 46.3255 423.133 46.3984C421.036 48.8594 419.223 51.5208 417.691 54.3828C416.16 57.263 414.902 60.1341 413.918 62.9961C413.025 65.5482 412.405 68.1549 412.059 70.8164C411.986 71.4727 411.958 72.1107 411.977 72.7305C411.995 72.9674 412.022 73.1953 412.059 73.4141C412.095 73.5234 412.159 73.5964 412.25 73.6328C412.341 73.6693 412.432 73.6602 412.523 73.6055ZM462.945 35.9531C463.164 36.1172 463.283 36.3268 463.301 36.582C463.319 36.8372 463.228 37.0651 463.027 37.2656C461.678 38.5599 460.02 39.9909 458.051 41.5586C456.1 43.1263 454.049 44.4661 451.898 45.5781C449.766 46.6901 447.742 47.2005 445.828 47.1094C444.297 46.9453 443.076 46.2344 442.164 44.9766C441.49 43.8646 441.107 42.6797 441.016 41.4219C440.906 40.1458 440.924 38.8971 441.07 37.6758C440.742 37.457 440.569 37.1654 440.551 36.8008C440.514 36.418 440.642 36.099 440.934 35.8438C441.098 35.7344 441.262 35.6068 441.426 35.4609C442.21 31.8151 443.358 28.2969 444.871 24.9062C446.384 21.5156 448.107 18.2344 450.039 15.0625C450.13 14.9167 450.24 14.7435 450.367 14.543C450.859 13.7409 451.479 12.8203 452.227 11.7812C452.974 10.724 453.767 9.80339 454.605 9.01953C455.444 8.23568 456.255 7.86198 457.039 7.89844C457.458 7.9349 457.777 8.11719 457.996 8.44531C458.233 8.75521 458.352 9.10156 458.352 9.48438C458.333 10.1042 458.242 10.6875 458.078 11.2344C457.458 13.2214 456.674 15.1354 455.727 16.9766C452.992 22.4453 449.875 27.6862 446.375 32.6992C445.391 34.1576 444.297 35.543 443.094 36.8555C442.875 37.9492 442.729 39.0794 442.656 40.2461C442.602 41.4128 442.757 42.5247 443.121 43.582C443.978 45.6419 445.19 46.6901 446.758 46.7266C448.344 46.763 450.021 46.2344 451.789 45.1406C453.576 44.0286 455.198 42.8073 456.656 41.4766C458.115 40.1276 459.172 39.0977 459.828 38.3867C460.521 37.6758 461.159 36.9284 461.742 36.1445C461.888 35.944 462.07 35.8255 462.289 35.7891C462.526 35.7526 462.745 35.8073 462.945 35.9531ZM445.145 29.4727C444.835 30.3659 444.543 31.2591 444.27 32.1523C448.025 27.1029 451.342 21.7891 454.223 16.2109C454.678 15.3177 455.107 14.4245 455.508 13.5312C455.909 12.6198 456.246 11.7083 456.52 10.7969C456.647 10.3594 456.72 9.93099 456.738 9.51172C456.046 9.82161 455.362 10.3867 454.688 11.207C454.013 12.0091 453.448 12.7383 452.992 13.3945C451.333 15.8737 449.857 18.4714 448.562 21.1875C447.286 23.9036 446.147 26.6654 445.145 29.4727ZM484.574 36.1719C484.738 36.4271 484.775 36.6914 484.684 36.9648C484.611 37.2383 484.447 37.4388 484.191 37.5664C483.809 37.7305 483.389 37.9219 482.934 38.1406C481.129 38.9974 478.969 39.9362 476.453 40.957C473.938 41.9779 471.477 42.7435 469.07 43.2539C466.682 43.7461 464.768 43.6367 463.328 42.9258C463.201 42.8529 463.082 42.7799 462.973 42.707C462.954 42.707 462.945 42.707 462.945 42.707C461.797 41.832 461.241 40.7018 461.277 39.3164C461.314 37.9128 461.733 36.5365 462.535 35.1875C463.355 33.8203 464.367 32.7448 465.57 31.9609C466.773 31.1771 467.986 30.9674 469.207 31.332C469.298 31.3685 469.389 31.4049 469.48 31.4414C469.499 31.4596 469.526 31.4779 469.562 31.4961C469.617 31.5143 469.663 31.5326 469.699 31.5508L469.727 31.5781C470.091 31.7786 470.346 32.0794 470.492 32.4805C470.638 32.8633 470.674 33.2461 470.602 33.6289C470.438 34.4674 470.091 35.2513 469.562 35.9805C469.052 36.6914 468.469 37.3021 467.812 37.8125C466.919 38.5599 465.889 39.0339 464.723 39.2344C464.158 39.3255 463.574 39.2891 462.973 39.125C462.918 39.5807 463 40.1641 463.219 40.875C463.456 41.5677 463.848 42.0872 464.395 42.4336C465.525 42.9622 466.91 43.0534 468.551 42.707C470.191 42.3607 471.841 41.8229 473.5 41.0938C475.177 40.3464 476.617 39.6628 477.82 39.043C478.021 38.9336 478.203 38.8333 478.367 38.7422C480.062 37.9036 481.694 36.9648 483.262 35.9258C483.48 35.7799 483.708 35.7344 483.945 35.7891C484.201 35.8255 484.41 35.9531 484.574 36.1719ZM465.707 34.5312C464.978 35.1328 464.312 35.9714 463.711 37.0469C464.404 37.1016 465.051 36.9375 465.652 36.5547C466.272 36.1719 466.819 35.7161 467.293 35.1875C467.785 34.6589 468.141 34.0664 468.359 33.4102C467.885 33.319 467.411 33.401 466.938 33.6562C466.464 33.9115 466.053 34.2031 465.707 34.5312Z" fill="white"/>
</svg>
