<svg width="169" height="84" viewBox="0 0 169 84" fill="none" xmlns="http://www.w3.org/2000/svg">
<g clip-path="url(#clip0_101_2)">
<path d="M58.4433 18.1812C53.4923 28.2332 49.4278 36.5122 49.4006 36.5804C49.3733 36.6758 52.7967 36.7168 59.0979 36.7168H68.8499L69.8728 34.8346C73.4053 28.3151 74.4964 26.1737 74.5646 25.6827C74.66 24.9599 74.2101 24.0051 73.569 23.6096C72.8461 23.1731 72.1505 23.1322 71.414 23.4868C70.6775 23.8415 70.7048 23.7869 68.0588 28.7652L66.2175 32.2159H61.4166C58.7706 32.2159 56.602 32.1749 56.602 32.134C56.602 32.0931 59.0707 27.0603 62.0849 20.95L67.5678 9.83412L67.9224 10.4888C68.127 10.8434 71.5368 17.4311 75.4921 25.1235C79.4475 32.816 82.7207 39.1445 82.7753 39.1991C82.8162 39.2536 86.2533 32.6932 90.4132 24.6325C94.5732 16.5718 98.0102 9.98415 98.0647 9.98415C98.1193 9.98415 100.602 14.9351 103.589 20.9909C106.576 27.0603 109.044 32.0522 109.072 32.1067C109.099 32.1749 106.958 32.2159 104.284 32.2159H99.456L97.3146 28.2196C96.1416 26.0374 95.0505 24.1006 94.9004 23.9369C94.4913 23.5005 93.5365 23.1595 92.991 23.2686C91.8453 23.4868 91.1089 24.3461 91.1089 25.4509C91.1089 26.0783 91.3544 26.5829 93.9458 31.4248L96.769 36.7168H106.562H116.341L115.959 35.9257C115.741 35.5029 111.677 27.2649 106.93 17.622C102.184 7.97919 98.2557 0.0548914 98.2147 0.000335054C98.1738 -0.0542213 94.6959 6.56074 90.5087 14.7033C86.3078 22.8322 82.8299 29.4471 82.7753 29.3926C82.7207 29.3244 79.2838 22.7094 75.1511 14.6896C71.0049 6.65621 67.5815 0.0548914 67.5269 0.000335054C67.486 -0.0405822 63.3943 8.12922 58.4433 18.1812Z" fill="white"/>
<path d="M106.808 42.3225C104.339 42.6089 102.252 43.5091 100.738 44.9139C99.552 46.0324 98.9655 46.9735 98.6109 48.3646C97.9426 51.0106 98.6109 53.5611 100.424 55.1978C101.843 56.4935 103.548 57.1891 108.021 58.3348C112.113 59.3714 113.354 59.9715 113.9 61.1854C114.636 62.8084 113.682 64.486 111.622 65.168C110.476 65.5362 107.476 65.5362 106.344 65.168C104.83 64.677 103.698 63.5586 103.343 62.2356C103.248 61.8673 103.084 61.5945 102.907 61.5264C102.757 61.4718 101.597 61.2536 100.315 61.0626C99.0474 60.8717 97.888 60.6807 97.7653 60.6398C97.2061 60.4761 97.588 63.1358 98.3518 64.7452C99.4565 67.0638 101.72 68.8096 104.639 69.5734C109.644 70.8828 115.318 69.7098 117.896 66.8456C119.055 65.5635 119.887 63.3676 119.887 61.6082C119.887 60.6398 119.533 59.1395 119.11 58.2666C118.578 57.1755 117.2 55.8525 115.864 55.1705C114.514 54.4886 113.682 54.2158 110.476 53.4247C105.13 52.1017 104.066 51.5016 104.066 49.8104C104.066 47.8327 105.935 46.6734 108.853 46.8507C110.613 46.9598 111.513 47.3008 112.304 48.1873C112.631 48.5556 113 49.1284 113.109 49.4421L113.3 50.015L115.741 50.3832C117.078 50.5878 118.36 50.7515 118.578 50.7515L118.974 50.7651L118.892 49.7558C118.537 45.555 115.196 42.8272 109.808 42.3089C108.212 42.1589 108.24 42.1589 106.808 42.3225Z" fill="white"/>
<path d="M43.5088 56.0843V69.4506H46.1002H48.6916L48.7189 60.3942L48.7598 51.3379L55.3748 60.3942L61.9898 69.4369L64.5539 69.4506H67.1044L67.0771 56.1115L67.0362 42.7862L64.5539 42.7452L62.0579 42.718L62.0307 50.9696L61.9898 59.2212L56.084 50.9696L50.1783 42.718H46.8367H43.5088V56.0843Z" fill="white"/>
<path d="M122.615 56.0843V69.4506L132.954 69.4233L143.278 69.3824V66.9273V64.4723L135.818 64.4314L128.344 64.4041V61.6081V58.8121H134.413H140.482L140.455 56.2479L140.414 53.6974L134.386 53.6565L128.344 53.6292V50.6968V47.7644H135.163H141.983V45.2412V42.718H132.299H122.615V56.0843Z" fill="white"/>
<path d="M0 56.1524V69.4505H2.79601H5.59203L5.60566 60.2032V50.9695L8.52443 56.8616L11.4296 62.7673L13.7346 62.7537H16.0259L18.9583 56.7388L21.8907 50.724L21.9317 60.094L21.9589 69.4505H24.6867H27.4146V56.1524V42.8542H23.5683H19.7085L16.7215 48.6645C15.0848 51.856 13.6936 54.4202 13.6391 54.352C13.5845 54.2974 12.1933 51.6787 10.5567 48.5417L7.58333 42.8542H3.79167H0V56.1524Z" fill="white"/>
<path d="M33.1023 42.9363C33.0478 42.9908 33.0068 48.9784 33.0068 56.248V69.4507H36.0074H39.008L38.9808 56.1798L38.9398 42.9226L36.062 42.8817C34.4935 42.8681 33.1569 42.8954 33.1023 42.9363Z" fill="white"/>
<path d="M71.6055 56.1524V69.4505H78.0022C84.9309 69.4505 85.7629 69.3823 87.7269 68.6867C90.4274 67.7183 92.8006 65.3997 93.9327 62.6173C94.8465 60.3532 95.2829 57.2298 95.0511 54.4747C94.601 48.8145 91.9141 45.0092 87.3177 43.5362C85.4219 42.9224 84.4671 42.8542 77.7976 42.8542H71.6055V56.1524ZM84.1398 48.1053C87.5223 48.91 89.1999 51.6651 89.1999 56.4251C89.1999 58.3892 88.9271 59.8485 88.3134 61.1033C87.4268 62.8901 85.8174 64.0903 83.8807 64.404C83.3897 64.4722 81.753 64.5404 80.239 64.5404H77.4703V56.2205V47.9007H80.3754C82.4758 47.9007 83.5124 47.9553 84.1398 48.1053Z" fill="white"/>
<path d="M145.666 45.3775V47.9007H149.894H154.122V58.6756V69.4505H157.054H159.987V58.6756V47.9007H164.146H168.306V45.3775V42.8542H156.986H145.666V45.3775Z" fill="white"/>
<path d="M59.0461 76.1473C59.0051 76.2564 58.9915 78.0294 59.0051 80.0889L59.0461 83.8397L60.6146 83.8261C61.4738 83.8261 62.4149 83.7442 62.6877 83.6488C63.7379 83.2941 64.3244 82.544 64.3244 81.4938C64.3244 80.7573 64.0107 80.2663 63.3833 79.9935L62.8923 79.8025L63.3015 79.5434C63.8197 79.2297 64.0789 78.6023 63.9834 77.8931C63.8061 76.611 63.0559 76.1745 60.71 76.0518C59.4007 75.9699 59.1143 75.9972 59.0461 76.1473ZM62.1558 77.102C62.8104 77.2793 63.1241 77.7567 63.015 78.3704C62.865 79.1479 62.524 79.3388 61.1465 79.3797L59.9326 79.4343V78.1931V76.952H60.7919C61.2556 76.952 61.8693 77.0202 62.1558 77.102ZM62.7832 80.5663C63.7515 81.0573 63.4378 82.4894 62.2785 82.8168C62.0057 82.885 61.3647 82.9532 60.8601 82.9532H59.9326V81.6574V80.3617H61.1601C61.9785 80.3617 62.5377 80.4299 62.7832 80.5663Z" fill="white"/>
<path d="M70.5307 76.0928C70.367 76.3519 67.4346 83.6489 67.4346 83.7853C67.4346 83.8672 67.6392 83.908 67.9256 83.8807C68.403 83.8398 68.4302 83.8126 68.8531 82.7488L69.2895 81.6576L70.9398 81.6167L72.5765 81.5757L73.0266 82.7488L73.4767 83.9217L73.9677 83.8807C74.3223 83.8534 74.4451 83.7853 74.4178 83.6353C74.336 83.2807 71.499 76.352 71.349 76.1611C71.2126 75.9838 70.6261 75.9291 70.5307 76.0928ZM71.5945 79.1344L72.1674 80.6346H70.9535C70.026 80.6346 69.7396 80.5937 69.7805 80.4573C70.2442 79.1207 70.8989 77.5114 70.9535 77.5659C70.9944 77.6068 71.2808 78.3161 71.5945 79.1344Z" fill="white"/>
<path d="M77.7998 79.9254V83.908H78.2772H78.7546V82.2713V80.6346H79.3001C79.8321 80.6346 79.8593 80.6619 81.0732 82.2713C82.1643 83.717 82.3553 83.908 82.7099 83.908C82.9554 83.908 83.1191 83.8398 83.1054 83.7307C83.1054 83.6489 82.6281 82.8851 82.0416 82.0667L80.9777 80.5664L81.4824 80.3891C81.7552 80.2936 82.1916 80.0072 82.4508 79.7344C82.8872 79.2843 82.9145 79.2025 82.9145 78.316C82.9145 77.4431 82.8872 77.3476 82.4644 76.9111C81.8779 76.311 81.2914 76.1474 79.3683 76.0382L77.7998 75.9564V79.9254ZM81.4551 77.3203C81.7552 77.5385 81.837 77.7159 81.8643 78.2614C81.8916 78.8479 81.8506 78.9843 81.5506 79.2707C81.2369 79.5708 81.0459 79.6117 79.9684 79.6526L78.7546 79.7072V78.316V76.9111L79.9139 76.9793C80.8004 77.0203 81.1687 77.1021 81.4551 77.3203Z" fill="white"/>
<path d="M86.9375 79.9527V83.9489L88.6288 83.8807C91.2065 83.758 92.0931 83.2124 92.2295 81.6575C92.284 81.0574 92.2431 80.9074 91.9021 80.5119C91.6976 80.2664 91.3839 80.0072 91.2065 79.939L90.8792 79.8163L91.3566 79.4071C92.3659 78.5069 92.0113 76.8975 90.661 76.3247C90.4155 76.2155 89.4744 76.0928 88.5742 76.0382L86.9375 75.9564V79.9527ZM90.1018 77.0884C90.6746 77.2521 90.8928 77.5522 90.8928 78.1659C90.8928 79.107 90.4291 79.4071 88.9152 79.4071H87.8922V78.1796V76.9521H88.7515C89.2152 76.9521 89.829 77.0203 90.1018 77.0884ZM90.9065 80.7574C91.3839 81.2347 91.4248 81.8076 91.0292 82.3122C90.6746 82.7623 90.0063 82.9533 88.8197 82.9533H87.8922V81.6575V80.3618H89.2016C90.4564 80.3618 90.5246 80.3755 90.9065 80.7574Z" fill="white"/>
<path d="M96.0762 79.9527V83.908H98.5312H100.986V83.4306V82.9533H99.0086H97.0309V81.6575V80.3755L98.7085 80.3346L100.372 80.2936L100.413 79.8435L100.454 79.4071H98.7495H97.0309V78.1796V76.9521H98.954H100.863L100.823 76.502L100.782 76.0655L98.4358 76.0246L96.0762 75.9973V79.9527Z" fill="white"/>
<path d="M104.738 76.1474C104.697 76.2565 104.683 78.0296 104.697 80.0891L104.738 83.8398H105.215H105.692L105.733 82.2304L105.774 80.6346H106.279C106.783 80.6346 106.838 80.6755 108.011 82.2713C109.129 83.7989 109.238 83.908 109.661 83.908C109.92 83.908 110.125 83.8671 110.125 83.8262C110.125 83.7852 109.634 83.0487 109.034 82.1895C108.434 81.3302 107.943 80.6073 107.943 80.5801C107.943 80.5528 108.215 80.43 108.556 80.3073C110.466 79.5708 110.343 76.8293 108.379 76.2701C108.106 76.1883 107.179 76.0928 106.347 76.0382C105.092 75.97 104.806 75.9973 104.738 76.1474ZM107.997 77.143C108.829 77.484 109.102 78.2069 108.706 78.9843C108.434 79.5026 107.956 79.6799 106.783 79.6799H105.76V78.316V76.9521H106.647C107.138 76.9521 107.752 77.0339 107.997 77.143Z" fill="white"/>
</g>
<defs>
<clipPath id="clip0_101_2">
<rect width="169" height="84" fill="white"/>
</clipPath>
</defs>
</svg>
