<svg width="787" height="414" viewBox="0 0 787 414" fill="none" xmlns="http://www.w3.org/2000/svg">
<path d="M272.159 84.6291C249.103 131.419 230.175 169.956 230.049 170.273C229.921 170.717 245.864 170.908 275.207 170.908H320.62L325.384 162.147C341.834 131.8 346.915 121.832 347.233 119.547C347.677 116.182 345.582 111.738 342.596 109.897C339.23 107.865 335.99 107.675 332.561 109.325C329.131 110.976 329.258 110.722 316.936 133.895L308.362 149.957H286.005C273.683 149.957 263.584 149.766 263.584 149.576C263.584 149.386 275.08 125.959 289.117 97.5172L314.65 45.7755L316.301 48.8228C317.254 50.4734 333.133 81.1376 351.552 116.944C369.971 152.751 385.214 182.208 385.469 182.462C385.659 182.716 401.665 152.179 421.037 114.658C440.409 77.1378 456.414 46.4738 456.668 46.4738C456.923 46.4738 468.484 69.5193 482.393 97.7076C496.303 125.959 507.796 149.195 507.927 149.449C508.052 149.766 498.082 149.957 485.63 149.957H463.147L453.175 131.355C447.713 121.198 442.632 112.183 441.933 111.421C440.028 109.389 435.581 107.802 433.041 108.31C427.706 109.325 424.276 113.325 424.276 118.468C424.276 121.388 425.419 123.737 437.487 146.275L450.634 170.908H496.238H541.777L539.998 167.226C538.983 165.258 520.058 126.912 497.952 82.0262C475.851 37.1412 457.558 0.255507 457.367 0.0015596C457.176 -0.252387 440.98 30.5387 421.481 68.4403C401.919 106.278 385.723 137.069 385.469 136.816C385.214 136.498 369.209 105.707 349.964 68.3766C330.656 30.983 314.714 0.255507 314.459 0.0015596C314.269 -0.1889 295.215 37.8396 272.159 84.6291Z" fill="white"/>
<path d="M497.384 197.001C485.886 198.334 476.167 202.524 469.117 209.063C463.591 214.269 460.86 218.65 459.209 225.125C456.097 237.442 459.209 249.314 467.654 256.932C474.263 262.963 482.202 266.201 503.032 271.534C522.088 276.359 527.867 279.153 530.41 284.803C533.837 292.358 529.394 300.167 519.801 303.341C514.465 305.055 500.494 305.055 495.223 303.341C488.172 301.056 482.901 295.85 481.248 289.691C480.805 287.977 480.042 286.707 479.217 286.39C478.519 286.136 473.117 285.12 467.147 284.231C461.242 283.343 455.843 282.454 455.271 282.263C452.667 281.501 454.445 293.882 458.002 301.373C463.147 312.166 473.69 320.292 487.283 323.847C510.59 329.942 537.013 324.482 549.018 311.15C554.415 305.182 558.29 294.961 558.29 286.771C558.29 282.263 556.641 275.28 554.672 271.217C552.194 266.138 545.777 259.98 539.556 256.805C533.269 253.631 529.394 252.361 514.465 248.679C489.569 242.521 484.615 239.727 484.615 231.855C484.615 222.649 493.318 217.253 506.907 218.078C515.103 218.586 519.294 220.173 522.977 224.3C524.5 226.014 526.218 228.681 526.726 230.141L527.616 232.807L538.983 234.521C545.209 235.474 551.179 236.236 552.194 236.236L554.038 236.299L553.656 231.601C552.003 212.047 536.445 199.35 511.354 196.937C503.922 196.239 504.052 196.239 497.384 197.001Z" fill="white"/>
<path d="M202.612 261.059V323.276H214.68H226.748L226.875 281.121L227.065 238.966L257.87 281.121L288.675 323.212L300.615 323.276H312.492L312.365 261.186L312.175 199.16L300.615 198.969L288.992 198.842L288.865 237.251L288.675 275.661L261.173 237.251L233.671 198.842H218.11H202.612V261.059Z" fill="white"/>
<path d="M570.994 261.059V323.276L619.141 323.149L667.218 322.959V311.531V300.103L632.478 299.913L597.673 299.786V286.771V273.756H625.935H654.197L654.072 261.821L653.881 249.949L625.809 249.758L597.673 249.631V235.982V222.332H629.428H661.187V210.587V198.842H616.091H570.994V261.059Z" fill="white"/>
<path d="M0 261.377V323.276H13.0205H26.041L26.1045 280.232V237.251L39.6966 264.678L53.2254 292.167L63.9594 292.104H74.6295L88.2851 264.106L101.941 236.109L102.132 279.724L102.258 323.276H114.961H127.664V261.377V199.477H109.753H91.7786L77.8688 226.522C70.247 241.378 63.7684 253.314 63.5146 252.996C63.2604 252.742 56.7818 240.553 49.1605 225.951L35.3141 199.477H17.6571H0V261.377Z" fill="white"/>
<path d="M154.151 199.858C153.897 200.111 153.706 227.982 153.706 261.821V323.276H167.679H181.652L181.526 261.503L181.335 199.794L167.934 199.604C160.629 199.54 154.405 199.667 154.151 199.858Z" fill="white"/>
<path d="M333.45 261.377V323.276H363.238C395.504 323.276 399.378 322.959 408.524 319.721C421.1 315.213 432.152 304.42 437.424 291.469C441.679 280.93 443.711 266.392 442.632 253.567C440.536 227.22 428.023 209.508 406.619 202.651C397.79 199.794 393.344 199.477 362.286 199.477H333.45V261.377ZM391.82 223.919C407.572 227.665 415.384 240.489 415.384 262.646C415.384 271.788 414.113 278.581 411.256 284.422C407.127 292.739 399.632 298.326 390.613 299.786C388.327 300.103 380.705 300.421 373.655 300.421H360.761V261.693V222.967H374.29C384.071 222.967 388.898 223.221 391.82 223.919Z" fill="white"/>
<path d="M678.338 211.222V222.967H698.027H717.716V273.121V323.276H731.37H745.028V273.121V222.967H764.396H783.768V211.222V199.477H731.053H678.338V211.222Z" fill="white"/>
<path d="M177.962 412.89V375.529H190.568C193 375.529 195.025 375.955 196.642 376.806C198.272 377.657 199.494 378.819 200.309 380.29C201.124 381.762 201.531 383.434 201.531 385.307C201.531 386.864 201.27 388.196 200.747 389.302C200.224 390.409 199.513 391.303 198.613 391.984C197.713 392.665 196.709 393.158 195.603 393.462V393.753C196.807 393.839 197.974 394.264 199.105 395.03C200.236 395.785 201.167 396.843 201.896 398.205C202.626 399.567 202.991 401.197 202.991 403.094C202.991 404.979 202.571 406.663 201.732 408.147C200.893 409.619 199.604 410.78 197.865 411.631C196.138 412.47 193.936 412.89 191.261 412.89H177.962ZM181.373 409.825H191.261C194.143 409.825 196.271 409.187 197.646 407.91C199.032 406.633 199.725 405.027 199.725 403.094C199.725 401.671 199.379 400.382 198.686 399.226C198.005 398.059 197.038 397.134 195.785 396.453C194.545 395.772 193.085 395.432 191.407 395.432H181.373V409.825ZM181.373 392.404H190.878C192.349 392.404 193.638 392.099 194.745 391.491C195.852 390.883 196.715 390.044 197.336 388.974C197.956 387.904 198.266 386.681 198.266 385.307C198.266 383.325 197.621 381.713 196.332 380.473C195.043 379.22 193.122 378.594 190.568 378.594H181.373V392.404Z" fill="white"/>
<path d="M220.268 412.89H216.692L230.283 375.529H233.931L247.522 412.89H243.947L232.235 379.962H231.979L220.268 412.89ZM222.84 398.57H241.374V401.634H222.84V398.57Z" fill="white"/>
<path d="M262.915 412.89V375.529H274.974C277.625 375.529 279.839 376.009 281.614 376.97C283.402 377.919 284.746 379.238 285.646 380.929C286.558 382.607 287.014 384.535 287.014 386.712C287.014 388.889 286.558 390.81 285.646 392.477C284.746 394.143 283.408 395.444 281.632 396.38C279.857 397.317 277.656 397.785 275.029 397.785H264.758V394.666H274.937C276.883 394.666 278.501 394.343 279.79 393.699C281.091 393.054 282.058 392.136 282.69 390.944C283.335 389.752 283.657 388.341 283.657 386.712C283.657 385.082 283.335 383.659 282.69 382.443C282.046 381.215 281.073 380.266 279.772 379.597C278.483 378.928 276.853 378.594 274.883 378.594H266.327V412.89H262.915ZM279.389 396.034L288.583 412.89H284.642L275.539 396.034H279.389Z" fill="white"/>
<path d="M304.314 412.89V375.529H316.919C319.352 375.529 321.377 375.955 322.994 376.806C324.624 377.657 325.846 378.819 326.661 380.29C327.476 381.762 327.883 383.434 327.883 385.307C327.883 386.864 327.622 388.196 327.099 389.302C326.576 390.409 325.864 391.303 324.964 391.984C324.064 392.665 323.061 393.158 321.954 393.462V393.753C323.158 393.839 324.326 394.264 325.457 395.03C326.588 395.785 327.518 396.843 328.248 398.205C328.978 399.567 329.343 401.197 329.343 403.094C329.343 404.979 328.923 406.663 328.084 408.147C327.245 409.619 325.955 410.78 324.216 411.631C322.489 412.47 320.288 412.89 317.612 412.89H304.314ZM307.725 409.825H317.612C320.495 409.825 322.623 409.187 323.997 407.91C325.384 406.633 326.077 405.027 326.077 403.094C326.077 401.671 325.73 400.382 325.037 399.226C324.356 398.059 323.389 397.134 322.137 396.453C320.896 395.772 319.437 395.432 317.758 395.432H307.725V409.825ZM307.725 392.404H317.229C318.701 392.404 319.99 392.099 321.097 391.491C322.204 390.883 323.067 390.044 323.687 388.974C324.308 387.904 324.618 386.681 324.618 385.307C324.618 383.325 323.973 381.713 322.684 380.473C321.395 379.22 319.473 378.594 316.919 378.594H307.725V392.404Z" fill="white"/>
<path d="M346.565 412.89V375.529H368.237V378.594H349.976V392.659H367.088V395.724H349.976V409.825H368.602V412.89H346.565Z" fill="white"/>
<path d="M386.056 412.89V375.529H398.115C400.766 375.529 402.979 376.009 404.755 376.97C406.543 377.919 407.887 379.238 408.787 380.929C409.699 382.607 410.155 384.535 410.155 386.712C410.155 388.889 409.699 390.81 408.787 392.477C407.887 394.143 406.549 395.444 404.773 396.38C402.998 397.317 400.796 397.785 398.169 397.785H387.899V394.666H398.078C400.024 394.666 401.642 394.343 402.931 393.699C404.232 393.054 405.199 392.136 405.831 390.944C406.476 389.752 406.798 388.341 406.798 386.712C406.798 385.082 406.476 383.659 405.831 382.443C405.187 381.215 404.214 380.266 402.913 379.597C401.623 378.928 399.994 378.594 398.024 378.594H389.468V412.89H386.056ZM402.529 396.034L411.724 412.89H407.783L398.68 396.034H402.529Z" fill="white"/>
<path d="M471.179 384.869C470.972 382.79 470.054 381.136 468.424 379.907C466.794 378.679 464.745 378.065 462.276 378.065C460.537 378.065 459.005 378.363 457.679 378.959C456.366 379.555 455.332 380.382 454.578 381.44C453.836 382.486 453.465 383.677 453.465 385.015C453.465 386 453.678 386.864 454.103 387.606C454.529 388.348 455.101 388.986 455.818 389.521C456.548 390.044 457.351 390.494 458.226 390.871C459.114 391.248 460.008 391.564 460.908 391.82L464.848 392.951C466.04 393.279 467.232 393.699 468.424 394.21C469.616 394.72 470.704 395.365 471.689 396.143C472.687 396.909 473.483 397.852 474.079 398.971C474.687 400.078 474.991 401.409 474.991 402.966C474.991 404.961 474.474 406.754 473.441 408.348C472.407 409.941 470.923 411.206 468.989 412.142C467.056 413.066 464.739 413.529 462.039 413.529C459.497 413.529 457.29 413.109 455.417 412.27C453.544 411.419 452.072 410.245 451.002 408.749C449.932 407.253 449.33 405.52 449.196 403.55H452.699C452.82 405.021 453.307 406.268 454.158 407.29C455.009 408.311 456.116 409.09 457.478 409.625C458.84 410.148 460.361 410.409 462.039 410.409C463.9 410.409 465.554 410.099 467.001 409.479C468.46 408.846 469.604 407.971 470.431 406.852C471.27 405.721 471.689 404.407 471.689 402.911C471.689 401.646 471.361 400.588 470.704 399.737C470.048 398.874 469.129 398.15 467.95 397.566C466.782 396.982 465.426 396.466 463.882 396.016L459.412 394.702C456.481 393.826 454.207 392.616 452.589 391.072C450.972 389.527 450.163 387.557 450.163 385.161C450.163 383.154 450.698 381.391 451.768 379.871C452.851 378.338 454.31 377.147 456.147 376.295C457.995 375.432 460.069 375 462.367 375C464.69 375 466.746 375.426 468.533 376.277C470.321 377.128 471.738 378.302 472.784 379.798C473.842 381.282 474.408 382.972 474.48 384.869H471.179Z" fill="white"/>
<path d="M492.191 412.89V375.529H495.602V392.659H516.8V375.529H520.211V412.89H516.8V395.724H495.602V412.89H492.191Z" fill="white"/>
<path d="M569.737 394.21C569.737 398.101 569.043 401.488 567.657 404.371C566.27 407.241 564.361 409.467 561.929 411.048C559.509 412.616 556.723 413.401 553.574 413.401C550.424 413.401 547.632 412.616 545.2 411.048C542.78 409.467 540.877 407.241 539.49 404.371C538.116 401.488 537.429 398.101 537.429 394.21C537.429 390.318 538.116 386.937 539.49 384.067C540.877 381.184 542.786 378.959 545.218 377.39C547.651 375.809 550.436 375.018 553.574 375.018C556.723 375.018 559.509 375.809 561.929 377.39C564.361 378.959 566.27 381.184 567.657 384.067C569.043 386.937 569.737 390.318 569.737 394.21ZM566.416 394.21C566.416 390.865 565.857 388.001 564.738 385.617C563.619 383.221 562.093 381.391 560.159 380.126C558.225 378.861 556.03 378.229 553.574 378.229C551.129 378.229 548.94 378.861 547.006 380.126C545.072 381.391 543.54 383.215 542.409 385.599C541.29 387.983 540.731 390.853 540.731 394.21C540.731 397.554 541.29 400.418 542.409 402.802C543.528 405.186 545.054 407.016 546.988 408.293C548.922 409.558 551.117 410.19 553.574 410.19C556.03 410.19 558.225 409.558 560.159 408.293C562.105 407.028 563.637 405.204 564.756 402.82C565.875 400.424 566.429 397.554 566.416 394.21Z" fill="white"/>
<path d="M586.977 412.89V375.529H599.035C601.686 375.529 603.9 376.04 605.676 377.061C607.463 378.071 608.807 379.445 609.707 381.184C610.619 382.923 611.075 384.881 611.075 387.058C611.075 389.235 610.625 391.2 609.725 392.951C608.825 394.69 607.488 396.07 605.712 397.092C603.936 398.101 601.729 398.606 599.09 398.606H589.604V395.541H598.999C600.957 395.541 602.58 395.176 603.87 394.447C605.159 393.705 606.119 392.695 606.752 391.418C607.396 390.141 607.719 388.688 607.719 387.058C607.719 385.429 607.396 383.975 606.752 382.698C606.119 381.421 605.153 380.418 603.851 379.688C602.562 378.959 600.926 378.594 598.944 378.594H590.388V412.89H586.977Z" fill="white"/>
</svg>
