<svg width="169" height="84" viewBox="0 0 169 84" fill="none" xmlns="http://www.w3.org/2000/svg">
<path d="M58.4433 18.1812C53.4923 28.2332 49.4278 36.5122 49.4006 36.5804C49.3733 36.6758 52.7967 36.7168 59.0979 36.7168H68.8499L69.8728 34.8346C73.4053 28.3151 74.4965 26.1737 74.5647 25.6827C74.6601 24.9599 74.2101 24.0051 73.569 23.6096C72.8461 23.1731 72.1505 23.1322 71.414 23.4868C70.6775 23.8415 70.7048 23.7869 68.0588 28.7652L66.2175 32.2159H61.4166C58.7706 32.2159 56.602 32.1749 56.602 32.134C56.602 32.0931 59.0707 27.0603 62.0849 20.95L67.5678 9.83412L67.9224 10.4888C68.127 10.8434 71.5368 17.4311 75.4921 25.1235C79.4475 32.816 82.7208 39.1445 82.7754 39.1991C82.8163 39.2536 86.2534 32.6932 90.4133 24.6325C94.5732 16.5718 98.0103 9.98415 98.0648 9.98415C98.1194 9.98415 100.602 14.9351 103.589 20.9909C106.576 27.0603 109.044 32.0522 109.072 32.1067C109.099 32.1749 106.958 32.2159 104.284 32.2159H99.456L97.3147 28.2196C96.1417 26.0374 95.0506 24.1006 94.9005 23.9369C94.4914 23.5005 93.5366 23.1595 92.9911 23.2686C91.8454 23.4868 91.1089 24.3461 91.1089 25.4509C91.1089 26.0783 91.3544 26.5829 93.9458 31.4248L96.7691 36.7168H106.562H116.341L115.959 35.9257C115.741 35.5029 111.677 27.2649 106.93 17.622C102.184 7.9792 98.2558 0.0548966 98.2148 0.000340218C98.1739 -0.0542161 94.696 6.56074 90.5088 14.7033C86.3079 22.8322 82.83 29.4471 82.7754 29.3926C82.7208 29.3244 79.2838 22.7094 75.1511 14.6896C71.0049 6.65621 67.5815 0.0548966 67.5269 0.000340218C67.486 -0.040577 63.3943 8.12923 58.4433 18.1812Z" fill="white"/>
<path d="M106.808 42.3224C104.339 42.6088 102.252 43.509 100.738 44.9138C99.5515 46.0323 98.965 46.9734 98.6104 48.3645C97.9421 51.0105 98.6104 53.561 100.424 55.1977C101.843 56.4934 103.548 57.189 108.021 58.3347C112.113 59.3713 113.354 59.9714 113.9 61.1853C114.636 62.8083 113.682 64.4859 111.622 65.1679C110.476 65.5361 107.476 65.5361 106.344 65.1679C104.83 64.6769 103.698 63.5585 103.343 62.2355C103.248 61.8672 103.084 61.5944 102.907 61.5263C102.757 61.4717 101.597 61.2535 100.315 61.0625C99.0469 60.8716 97.8875 60.6806 97.7648 60.6397C97.2056 60.476 97.5875 63.1357 98.3513 64.7451C99.456 67.0637 101.72 68.8095 104.639 69.5733C109.644 70.8827 115.318 69.7097 117.896 66.8455C119.055 65.5634 119.887 63.3675 119.887 61.6081C119.887 60.6397 119.533 59.1394 119.11 58.2665C118.578 57.1754 117.2 55.8524 115.864 55.1704C114.514 54.4885 113.682 54.2157 110.476 53.4246C105.13 52.1016 104.066 51.5015 104.066 49.8103C104.066 47.8326 105.935 46.6733 108.853 46.8506C110.613 46.9597 111.513 47.3007 112.304 48.1872C112.631 48.5555 113 49.1283 113.109 49.442L113.3 50.0149L115.741 50.3831C117.078 50.5877 118.36 50.7514 118.578 50.7514L118.974 50.765L118.892 49.7557C118.537 45.5549 115.196 42.8271 109.808 42.3088C108.212 42.1588 108.24 42.1588 106.808 42.3224Z" fill="white"/>
<path d="M43.5088 56.0843V69.4506H46.1002H48.6916L48.7189 60.3942L48.7598 51.3379L55.3748 60.3942L61.9898 69.4369L64.5539 69.4506H67.1044L67.0771 56.1115L67.0362 42.7862L64.5539 42.7452L62.0579 42.718L62.0307 50.9696L61.9898 59.2212L56.084 50.9696L50.1783 42.718H46.8367H43.5088V56.0843Z" fill="white"/>
<path d="M122.615 56.0843V69.4506L132.954 69.4233L143.278 69.3824V66.9273V64.4723L135.818 64.4314L128.344 64.4041V61.6081V58.8121H134.413H140.482L140.455 56.2479L140.414 53.6974L134.386 53.6565L128.344 53.6292V50.6968V47.7644H135.163H141.983V45.2412V42.718H132.299H122.615V56.0843Z" fill="white"/>
<path d="M0 56.1525V69.4506H2.79601H5.59203L5.60566 60.2033V50.9696L8.52443 56.8617L11.4296 62.7674L13.7346 62.7538H16.0259L18.9583 56.7389L21.8907 50.7241L21.9317 60.0941L21.9589 69.4506H24.6867H27.4146V56.1525V42.8543H23.5683H19.7085L16.7215 48.6646C15.0848 51.8561 13.6936 54.4203 13.6391 54.3521C13.5845 54.2975 12.1933 51.6788 10.5567 48.5418L7.58333 42.8543H3.79167H0V56.1525Z" fill="white"/>
<path d="M33.1023 42.9362C33.0478 42.9907 33.0068 48.9783 33.0068 56.2479V69.4506H36.0074H39.008L38.9808 56.1797L38.9398 42.9225L36.062 42.8816C34.4935 42.868 33.1569 42.8953 33.1023 42.9362Z" fill="white"/>
<path d="M71.605 56.1525V69.4506H78.0017C84.9304 69.4506 85.7624 69.3824 87.7264 68.6868C90.4269 67.7184 92.8001 65.3998 93.9322 62.6174C94.846 60.3533 95.2824 57.2299 95.0506 54.4748C94.6005 48.8146 91.9136 45.0093 87.3172 43.5363C85.4214 42.9225 84.4666 42.8543 77.7971 42.8543H71.605V56.1525ZM84.1393 48.1054C87.5218 48.9101 89.1994 51.6652 89.1994 56.4252C89.1994 58.3893 88.9266 59.8486 88.3129 61.1034C87.4263 62.8902 85.8169 64.0904 83.8802 64.4041C83.3892 64.4723 81.7525 64.5405 80.2385 64.5405H77.4698V56.2206V47.9008H80.3749C82.4753 47.9008 83.5119 47.9554 84.1393 48.1054Z" fill="white"/>
<path d="M145.666 45.3776V47.9008H149.894H154.122V58.6757V69.4506H157.054H159.987V58.6757V47.9008H164.146H168.306V45.3776V42.8543H156.986H145.666V45.3776Z" fill="white"/>
<path d="M95.0781 76.011C94.3416 76.1474 93.5778 76.6384 93.1005 77.2658C92.5413 77.9886 92.3094 78.8206 92.2958 80.0209C92.2821 81.3711 92.6504 82.2986 93.4824 83.0624C94.178 83.7034 94.8736 83.9626 95.8829 83.9626C98.0651 83.9626 99.4699 82.3941 99.4699 79.9527C99.4699 77.2112 97.5741 75.5063 95.0781 76.011ZM96.7285 76.9521C97.3422 77.1294 98.1333 77.975 98.3243 78.6842C98.4061 78.9706 98.4743 79.6117 98.4743 80.1027C98.4743 81.8758 97.4241 83.0897 95.8829 83.0897C94.3007 83.0897 93.2914 81.8894 93.2914 80.0072C93.2914 77.6613 94.7099 76.3929 96.7285 76.9521Z" fill="white"/>
<path d="M126.844 75.9973C125.425 76.2428 124.361 77.0339 123.829 78.2205C123.352 79.3116 123.366 80.9756 123.884 82.0394C124.443 83.1715 125.384 83.758 126.98 83.9762C127.676 84.0717 129.394 83.8398 129.667 83.6079C129.803 83.4988 129.844 83.0215 129.817 81.6712L129.776 79.8845H128.412H127.048V80.2936C127.048 80.7028 127.048 80.7028 127.908 80.7437L128.767 80.7846L128.726 81.9031L128.685 83.0215H127.526C126.503 83.0215 126.284 82.9669 125.725 82.6396C124.852 82.1349 124.484 81.3438 124.484 80.0345C124.484 78.616 124.975 77.7568 126.162 77.143C126.666 76.8839 128.153 76.802 128.999 76.9793C129.421 77.0748 129.435 77.0748 129.435 76.6247C129.435 76.2156 129.381 76.1474 129.067 76.0792C128.221 75.9291 127.43 75.9019 126.844 75.9973Z" fill="white"/>
<path d="M25.4367 76.1474C25.3957 76.2565 25.3821 78.0295 25.3957 80.089L25.4367 83.8398L27.0052 83.8262C27.8644 83.8262 28.8055 83.7443 29.0783 83.6489C30.1285 83.2942 30.715 82.5441 30.715 81.4939C30.715 80.7574 30.4013 80.2664 29.7739 79.9936L29.2829 79.8026L29.6921 79.5435C30.2103 79.2298 30.4695 78.6024 30.374 77.8932C30.1967 76.6111 29.4465 76.1746 27.1006 76.0519C25.7913 75.97 25.5049 75.9973 25.4367 76.1474ZM28.5464 77.1021C29.201 77.2794 29.5147 77.7568 29.4056 78.3705C29.2556 79.148 28.9146 79.3389 27.5371 79.3798L26.3232 79.4344V78.1932V76.9521H27.1825C27.6462 76.9521 28.2599 77.0203 28.5464 77.1021ZM29.1738 80.5664C30.1421 81.0574 29.8284 82.4895 28.6691 82.8169C28.3963 82.8851 27.7553 82.9533 27.2507 82.9533H26.3232V81.6575V80.3618H27.5507C28.3691 80.3618 28.9283 80.43 29.1738 80.5664Z" fill="white"/>
<path d="M36.9213 76.0928C36.7576 76.3519 33.8252 83.6488 33.8252 83.7852C33.8252 83.8671 34.0298 83.908 34.3162 83.8807C34.7936 83.8398 34.8208 83.8125 35.2437 82.7487L35.6801 81.6575L37.3304 81.6166L38.9671 81.5757L39.4172 82.7487L39.8673 83.9216L40.3583 83.8807C40.7129 83.8534 40.8357 83.7852 40.8084 83.6352C40.7266 83.2806 37.8896 76.3519 37.7396 76.161C37.6032 75.9837 37.0167 75.9291 36.9213 76.0928ZM37.9851 79.1343L38.558 80.6346H37.3441C36.4166 80.6346 36.1302 80.5937 36.1711 80.4573C36.6348 79.1207 37.2895 77.5113 37.3441 77.5658C37.385 77.6067 37.6714 78.316 37.9851 79.1343Z" fill="white"/>
<path d="M44.1904 79.9254V83.908H44.6678H45.1452V82.2713V80.6346H45.6907C46.2227 80.6346 46.2499 80.6619 47.4638 82.2713C48.5549 83.717 48.7459 83.908 49.1005 83.908C49.346 83.908 49.5097 83.8398 49.496 83.7307C49.496 83.6489 49.0187 82.8851 48.4322 82.0667L47.3683 80.5664L47.873 80.3891C48.1458 80.2936 48.5822 80.0072 48.8414 79.7344C49.2778 79.2843 49.3051 79.2025 49.3051 78.316C49.3051 77.4431 49.2778 77.3476 48.855 76.9111C48.2685 76.311 47.682 76.1474 45.7589 76.0382L44.1904 75.9564V79.9254ZM47.8457 77.3203C48.1458 77.5385 48.2276 77.7159 48.2549 78.2614C48.2822 78.8479 48.2412 78.9843 47.9412 79.2707C47.6275 79.5708 47.4365 79.6117 46.359 79.6526L45.1452 79.7072V78.316V76.9111L46.3045 76.9793C47.191 77.0203 47.5593 77.1021 47.8457 77.3203Z" fill="white"/>
<path d="M53.3286 79.9527V83.9489L55.0199 83.8807C57.5976 83.758 58.4842 83.2124 58.6206 81.6575C58.6751 81.0574 58.6342 80.9074 58.2932 80.5119C58.0887 80.2664 57.775 80.0072 57.5976 79.939L57.2703 79.8163L57.7477 79.4071C58.757 78.5069 58.4024 76.8975 57.0521 76.3247C56.8066 76.2155 55.8655 76.0928 54.9653 76.0382L53.3286 75.9564V79.9527ZM56.4929 77.0884C57.0657 77.2521 57.2839 77.5522 57.2839 78.1659C57.2839 79.107 56.8202 79.4071 55.3063 79.4071H54.2833V78.1796V76.9521H55.1426C55.6063 76.9521 56.2201 77.0203 56.4929 77.0884ZM57.2976 80.7574C57.775 81.2347 57.8159 81.8076 57.4203 82.3122C57.0657 82.7623 56.3974 82.9533 55.2108 82.9533H54.2833V81.6575V80.3618H55.5927C56.8475 80.3618 56.9157 80.3755 57.2976 80.7574Z" fill="white"/>
<path d="M62.4668 79.9527V83.908H64.9218H67.3769V83.4306V82.9533H65.3992H63.4215V81.6575V80.3755L65.0991 80.3346L66.7631 80.2936L66.804 79.8435L66.8449 79.4071H65.1401H63.4215V78.1796V76.9521H65.3446H67.2541L67.2132 76.502L67.1723 76.0655L64.8264 76.0246L62.4668 75.9973V79.9527Z" fill="white"/>
<path d="M71.1281 76.1474C71.0871 76.2565 71.0735 78.0296 71.0871 80.0891L71.1281 83.8398H71.6054H72.0828L72.1237 82.2304L72.1646 80.6346H72.6693C73.1739 80.6346 73.2285 80.6755 74.4014 82.2713C75.5198 83.7989 75.629 83.908 76.0518 83.908C76.3109 83.908 76.5155 83.8671 76.5155 83.8262C76.5155 83.7852 76.0245 83.0487 75.4244 82.1895C74.8243 81.3302 74.3332 80.6073 74.3332 80.5801C74.3332 80.5528 74.606 80.43 74.947 80.3073C76.8565 79.5708 76.7337 76.8293 74.7697 76.2701C74.4969 76.1883 73.5695 76.0928 72.7375 76.0382C71.4827 75.97 71.1963 75.9973 71.1281 76.1474ZM74.3878 77.143C75.2198 77.484 75.4926 78.2069 75.097 78.9843C74.8243 79.5026 74.3469 79.6799 73.1739 79.6799H72.151V78.316V76.9521H73.0375C73.5285 76.9521 74.1423 77.0339 74.3878 77.143Z" fill="white"/>
<path d="M84.7667 76.161C84.7258 76.2565 84.7122 78.0296 84.7258 80.0891L84.7667 83.8398L87.1263 83.8807L89.4722 83.908V83.4306V82.9533H87.6309H85.7897L85.7624 79.5026L85.7215 76.0655L85.2714 76.0246C84.9986 75.9973 84.8077 76.0519 84.7667 76.161Z" fill="white"/>
<path d="M103.344 76.0792C103.194 76.2428 103.234 81.0983 103.398 81.8758C103.739 83.4579 105.28 84.2899 107.135 83.908C107.694 83.7989 108.063 83.6079 108.445 83.267C109.277 82.5168 109.399 81.8894 109.358 78.7115L109.317 76.0655H108.84H108.363L108.295 78.9979C108.24 81.0574 108.172 82.0258 108.049 82.244C107.408 83.3624 105.226 83.3624 104.585 82.244C104.462 82.0258 104.394 81.0574 104.339 78.9979L104.271 76.0655L103.862 76.0246C103.63 75.9973 103.398 76.0246 103.344 76.0792Z" fill="white"/>
<path d="M113.409 76.1746C113.368 76.2701 113.354 78.0295 113.368 80.089L113.409 83.8398H113.886H114.364L114.35 80.6755L114.336 77.5113L114.718 78.1114C115.209 78.8888 118.36 83.3624 118.633 83.6761C118.769 83.8398 119.001 83.908 119.26 83.8807L119.683 83.8398V79.9527V76.0655H119.205H118.728V79.2025V82.3395L117.31 80.2936C114.459 76.1746 114.323 75.9973 113.873 75.9973C113.654 75.9973 113.436 76.0792 113.409 76.1746Z" fill="white"/>
<path d="M133.799 79.9527V83.908H136.254H138.709V83.4306V82.9533H136.732H134.754V81.6575V80.3755L136.432 80.3346L138.096 80.2936L138.137 79.8435L138.177 79.4071H136.473H134.754V78.1796V76.9521H136.677H138.587L138.546 76.502L138.505 76.0655L136.159 76.0246L133.799 75.9973V79.9527Z" fill="white"/>
</svg>
