<svg width="145" height="147" viewBox="0 0 145 147" fill="none" xmlns="http://www.w3.org/2000/svg">
<path d="M70.8295 129.713L72.355 141.424L70.7376 141.108L69.3447 130.304L70.1612 130.463L64.6764 139.923L63.2317 139.64L61.7916 128.827L62.5768 128.98L57.1704 138.455L55.6787 138.164L61.502 127.89L63.1508 128.212L64.5153 138.244L64.0914 138.162L69.1493 129.385L70.8295 129.713Z" fill="#8A8A8A"/>
<path d="M42.7096 121.306L31.6129 126.6L30.4018 125.579L33.7304 113.736L35.0149 114.819L31.8356 125.616L31.3463 125.203L41.4496 120.243L42.7096 121.306ZM39.2534 122.054L38.0981 122.754L33.2782 118.691L33.7485 117.414L39.2534 122.054Z" fill="#8A8A8A"/>
<path d="M24.0878 101.894L15.4248 106.493L17.2253 109.885L15.9958 110.537L11.652 102.355L12.8815 101.702L14.682 105.094L23.345 100.495L24.0878 101.894Z" fill="#8A8A8A"/>
<path d="M16.5982 80.4725C16.6882 81.3211 16.6336 82.1206 16.4343 82.8712C16.2233 83.6122 15.8914 84.2749 15.4385 84.8593C14.9738 85.4342 14.4125 85.9067 13.7546 86.2768C13.0966 86.647 12.354 86.8759 11.5266 86.9637C10.6992 87.0514 9.92508 86.9834 9.20411 86.7595C8.48314 86.5356 7.83996 86.1855 7.27456 85.7092C6.69856 85.2339 6.23497 84.6556 5.8838 83.9742C5.5209 83.2833 5.29445 82.5135 5.20444 81.6649C5.11331 80.8058 5.17799 79.9998 5.39848 79.247C5.60724 78.4847 5.97102 77.8186 6.4898 77.2487L7.60187 78.1766C7.20138 78.6482 6.92318 79.1604 6.76729 79.7132C6.6008 80.2672 6.54962 80.8465 6.61375 81.4511C6.68013 82.0769 6.84808 82.6491 7.1176 83.1675C7.386 83.6754 7.73194 84.1053 8.15543 84.4573C8.57891 84.8092 9.06765 85.0684 9.62164 85.2349C10.1639 85.392 10.7426 85.4378 11.3578 85.3726C11.9731 85.3073 12.5346 85.1405 13.0424 84.8721C13.5386 84.5942 13.9567 84.2388 14.297 83.8058C14.6372 83.3729 14.8853 82.8799 15.0412 82.3271C15.1959 81.7636 15.2401 81.169 15.1737 80.5432C15.1096 79.9385 14.9433 79.3823 14.6749 78.8745C14.3959 78.3677 14.0059 77.9264 13.5048 77.5505L14.3974 76.41C15.0242 76.8584 15.5249 77.4328 15.8996 78.1331C16.2731 78.8229 16.506 79.6027 16.5982 80.4725Z" fill="#8A8A8A"/>
<path d="M8.3296 50.7277L8.85639 49.2169L19.4319 52.9045L18.9051 54.4153L8.3296 50.7277ZM16.7874 60.4886L16.2607 61.9994L5.68511 58.3119L6.2119 56.8011L16.7874 60.4886ZM14.2389 52.6357L12.0211 58.9961L10.7067 58.5378L12.9245 52.1774L14.2389 52.6357Z" fill="#8A8A8A"/>
<path d="M36.9989 28.3714L31.3189 20.3755L28.1884 22.5993L27.3822 21.4645L34.9347 16.0995L35.7408 17.2343L32.6103 19.4582L38.2902 27.4541L36.9989 28.3714Z" fill="#8A8A8A"/>
<path d="M58.0321 6.35797L59.5983 6.03088L61.8879 16.9943L60.3217 17.3214L58.0321 6.35797ZM54.0256 18.6363L52.4594 18.9634L50.1697 7.99996L51.7359 7.67287L54.0256 18.6363ZM59.4422 12.4054L52.8484 13.7825L52.5639 12.4199L59.1576 11.0428L59.4422 12.4054Z" fill="#8A8A8A"/>
<path d="M81.5136 10.0915L87.1246 11.3931L86.8173 12.7179L81.2062 11.4163L81.5136 10.0915ZM80.5294 14.9713L86.8886 16.4465L86.574 17.8025L78.6562 15.9658L81.1871 5.05547L88.8867 6.84156L88.5721 8.19756L82.4312 6.77303L80.5294 14.9713Z" fill="#8A8A8A"/>
<path d="M111.827 31.8699L116.858 20.7158L118.013 22.0005L113.357 32.2794L112.694 31.5419L123.428 28.0196L124.498 29.2091L112.886 33.0475L111.827 31.8699Z" fill="#8A8A8A"/>
<path d="M123.193 47.7044L133.436 43.1745L134.083 44.6378L123.84 49.1677L123.193 47.7044Z" fill="#8A8A8A"/>
<path d="M128.128 59.9257L139.3 59.1334L139.633 63.8416C139.718 65.0333 139.558 66.0979 139.154 67.0355C138.751 67.9837 138.147 68.7377 137.342 69.2974C136.537 69.8677 135.582 70.1921 134.475 70.2706C133.369 70.3491 132.377 70.1627 131.5 69.7116C130.624 69.2712 129.92 68.61 129.387 67.7282C128.854 66.857 128.546 65.8255 128.462 64.6339L128.128 59.9257ZM129.629 61.4232L129.843 64.4396C129.909 65.3653 130.141 66.1509 130.54 66.7963C130.939 67.4523 131.466 67.9443 132.12 68.2722C132.785 68.5993 133.532 68.7334 134.362 68.6746C135.203 68.615 135.924 68.3767 136.525 67.9598C137.126 67.5429 137.578 66.9815 137.881 66.2757C138.185 65.5804 138.304 64.77 138.238 63.8443L138.024 60.8279L129.629 61.4232Z" fill="#8A8A8A"/>
<path d="M133.006 89.9102L130.96 95.2948L129.689 94.8118L131.734 89.4272L133.006 89.9102ZM128.303 88.2778L125.985 94.3803L124.683 93.886L127.57 86.2877L138.04 90.2649L135.233 97.6538L133.932 97.1595L136.17 91.2663L128.303 88.2778Z" fill="#8A8A8A"/>
<path d="M114.312 110.31C114.922 109.713 115.591 109.261 116.319 108.952C117.039 108.651 117.768 108.498 118.508 108.491C119.254 108.492 119.977 108.636 120.675 108.923C121.373 109.21 122.009 109.647 122.583 110.235C123.157 110.822 123.58 111.468 123.851 112.173C124.122 112.877 124.246 113.599 124.222 114.338C124.206 115.085 124.039 115.814 123.722 116.527C123.405 117.24 122.937 117.899 122.319 118.503C121.709 119.099 121.047 119.544 120.335 119.838C119.622 120.146 118.893 120.3 118.146 120.299C117.399 120.313 116.68 120.173 115.99 119.878C115.292 119.591 114.652 119.15 114.07 118.555C113.489 117.96 113.062 117.31 112.791 116.606C112.513 115.909 112.385 115.183 112.409 114.429C112.432 113.69 112.603 112.964 112.92 112.251C113.238 111.553 113.701 110.906 114.312 110.31ZM115.307 111.328C114.865 111.761 114.531 112.236 114.306 112.754C114.074 113.279 113.955 113.813 113.949 114.356C113.942 114.914 114.045 115.455 114.258 115.978C114.463 116.508 114.782 116.994 115.214 117.437C115.647 117.879 116.126 118.209 116.651 118.426C117.169 118.651 117.703 118.763 118.254 118.762C118.805 118.775 119.345 118.672 119.876 118.452C120.399 118.239 120.881 117.917 121.324 117.484C121.774 117.044 122.115 116.562 122.347 116.036C122.572 115.518 122.687 114.98 122.694 114.422C122.708 113.872 122.612 113.331 122.407 112.801C122.194 112.278 121.872 111.796 121.439 111.353C121.007 110.911 120.532 110.577 120.014 110.352C119.488 110.135 118.946 110.023 118.388 110.017C117.838 110.018 117.301 110.125 116.778 110.338C116.247 110.558 115.757 110.888 115.307 111.328Z" fill="#8A8A8A"/>
<path d="M91.698 129.497C91.9477 129.44 92.1947 129.445 92.4391 129.51C92.6858 129.585 92.9015 129.717 93.0862 129.905C93.2604 130.095 93.3793 130.33 93.4429 130.611C93.5041 130.882 93.4958 131.135 93.418 131.371C93.3322 131.621 93.1942 131.832 93.0039 132.006C92.8137 132.181 92.5937 132.296 92.344 132.353C92.0839 132.411 91.8357 132.402 91.5994 132.324C91.3527 132.249 91.1422 132.116 90.9679 131.926C90.796 131.746 90.6795 131.521 90.6183 131.25C90.5547 130.969 90.5607 130.706 90.6361 130.459C90.7115 130.212 90.8443 130.002 91.0346 129.827C91.2168 129.666 91.4379 129.556 91.698 129.497Z" fill="#8A8A8A"/>
</svg>
